<?xml version="1.0" encoding="UTF-8" standalone="no"?>
<svg
   id="svg4389"
   height="48"
   width="48"
   version="1.1"
   sodipodi:docname="48.svg"
   inkscape:version="1.1.1 (3bf5ae0d25, 2021-09-20)"
   xmlns:inkscape="http://www.inkscape.org/namespaces/inkscape"
   xmlns:sodipodi="http://sodipodi.sourceforge.net/DTD/sodipodi-0.dtd"
   xmlns:xlink="http://www.w3.org/1999/xlink"
   xmlns="http://www.w3.org/2000/svg"
   xmlns:svg="http://www.w3.org/2000/svg"
   xmlns:rdf="http://www.w3.org/1999/02/22-rdf-syntax-ns#"
   xmlns:cc="http://creativecommons.org/ns#"
   xmlns:dc="http://purl.org/dc/elements/1.1/">
  <sodipodi:namedview
     id="namedview100"
     pagecolor="#ffffff"
     bordercolor="#666666"
     borderopacity="1.0"
     inkscape:pageshadow="2"
     inkscape:pageopacity="0.0"
     inkscape:pagecheckerboard="0"
     showgrid="true"
     inkscape:zoom="9.3419432"
     inkscape:cx="28.366689"
     inkscape:cy="37.465439"
     inkscape:window-width="1920"
     inkscape:window-height="1011"
     inkscape:window-x="0"
     inkscape:window-y="32"
     inkscape:window-maximized="1"
     inkscape:current-layer="svg4389">
    <inkscape:grid
       type="xygrid"
       id="grid917" />
  </sodipodi:namedview>
  <defs
     id="defs4391">
    <linearGradient
       id="linearGradient3924-1">
      <stop
         offset="0"
         style="stop-color:#ffffff;stop-opacity:1"
         id="stop3926-3" />
      <stop
         offset="0.06316455"
         style="stop-color:#ffffff;stop-opacity:0.23529412"
         id="stop3928-91" />
      <stop
         offset="0.95056331"
         style="stop-color:#ffffff;stop-opacity:0.15686275"
         id="stop3930-6" />
      <stop
         offset="1"
         style="stop-color:#ffffff;stop-opacity:0.39215687"
         id="stop3932-6" />
    </linearGradient>
    <linearGradient
       id="linearGradient4632-92-3-0-8-1-6">
      <stop
         offset="0"
         style="stop-color:#fafafa;stop-opacity:1"
         id="stop4634-68-8-0-2-9-1" />
      <stop
         offset="1"
         style="stop-color:#e1e1e1;stop-opacity:1"
         id="stop4636-8-21-7-1-4-9" />
    </linearGradient>
    <radialGradient
       gradientTransform="matrix(2.003784,0,0,1.4,27.98813,-17.4)"
       gradientUnits="userSpaceOnUse"
       xlink:href="#linearGradient3688-166-749"
       id="radialGradient3013"
       fy="43.5"
       fx="4.9929786"
       r="2.5"
       cy="43.5"
       cx="4.9929786" />
    <linearGradient
       id="linearGradient3688-166-749">
      <stop
         offset="0"
         style="stop-color:#181818;stop-opacity:1"
         id="stop2883" />
      <stop
         offset="1"
         style="stop-color:#181818;stop-opacity:0"
         id="stop2885" />
    </linearGradient>
    <radialGradient
       gradientTransform="matrix(2.003784,0,0,1.4,-20.01187,-104.4)"
       gradientUnits="userSpaceOnUse"
       xlink:href="#linearGradient3688-464-309"
       id="radialGradient3015"
       fy="43.5"
       fx="4.9929786"
       r="2.5"
       cy="43.5"
       cx="4.9929786" />
    <linearGradient
       id="linearGradient3688-464-309">
      <stop
         offset="0"
         style="stop-color:#181818;stop-opacity:1"
         id="stop2889" />
      <stop
         offset="1"
         style="stop-color:#181818;stop-opacity:0"
         id="stop2891" />
    </linearGradient>
    <linearGradient
       id="linearGradient3702-501-757">
      <stop
         offset="0"
         style="stop-color:#181818;stop-opacity:0"
         id="stop2895" />
      <stop
         offset="0.5"
         style="stop-color:#181818;stop-opacity:1"
         id="stop2897" />
      <stop
         offset="1"
         style="stop-color:#181818;stop-opacity:0"
         id="stop2899" />
    </linearGradient>
    <linearGradient
       gradientUnits="userSpaceOnUse"
       xlink:href="#linearGradient3702-501-757"
       id="linearGradient4387"
       y2="39.999443"
       x2="25.058096"
       y1="47.027729"
       x1="25.058096" />
    <linearGradient
       id="linearGradient3104-8-8-97-4-6-2-0-1-4-0-5-8">
      <stop
         offset="0"
         style="stop-color:#000000;stop-opacity:0.32173914"
         id="stop3106-5-4-3-5-0-1-61-9-2-7-3-3" />
      <stop
         offset="1"
         style="stop-color:#000000;stop-opacity:0.27826086"
         id="stop3108-4-3-7-8-2-4-01-9-9-0-6-4" />
    </linearGradient>
    <linearGradient
       y2="5.1757793"
       x2="-95.837799"
       y1="54.199703"
       x1="-95.837799"
       gradientTransform="matrix(0.80749834,0,0,0.83374395,106.87671,-0.0698511)"
       gradientUnits="userSpaceOnUse"
       id="linearGradient3847"
       xlink:href="#linearGradient3104-8-8-97-4-6-2-0-1-4-0-5-8" />
    <linearGradient
       y2="43"
       x2="23.99999"
       y1="4.999989"
       x1="23.99999"
       gradientTransform="translate(4e-6,1.0000062)"
       gradientUnits="userSpaceOnUse"
       id="linearGradient3850"
       xlink:href="#linearGradient3924-1" />
    <radialGradient
       r="27.5"
       fy="4.3419166"
       fx="31.999998"
       cy="4.3419166"
       cx="31.999998"
       gradientTransform="matrix(0,1.6257921,-1.625792,0,31.059051,-46.134567)"
       gradientUnits="userSpaceOnUse"
       id="radialGradient3857"
       xlink:href="#linearGradient4632-92-3-0-8-1-6" />
    <linearGradient
       id="linearGradient8424">
      <stop
         offset="0"
         stop-color="#fff"
         id="stop8426" />
      <stop
         offset="1"
         stop-opacity="0"
         stop-color="#fff"
         id="stop8428" />
    </linearGradient>
    <linearGradient
       x1="9"
       y1="21"
       gradientTransform="translate(8,0)"
       x2="9"
       gradientUnits="userSpaceOnUse"
       xlink:href="#linearGradient8424"
       y2="18"
       id="linearGradient8434" />
    <linearGradient
       x1="9"
       y1="21"
       gradientTransform="translate(16,0)"
       x2="9"
       gradientUnits="userSpaceOnUse"
       xlink:href="#linearGradient8424"
       y2="18"
       id="linearGradient8438" />
    <linearGradient
       x1="9"
       y1="21"
       gradientTransform="translate(24,0)"
       x2="9"
       gradientUnits="userSpaceOnUse"
       xlink:href="#linearGradient8424"
       y2="18"
       id="linearGradient8442" />
    <linearGradient
       x1="9"
       y1="21"
       gradientTransform="translate(32,0)"
       x2="9"
       gradientUnits="userSpaceOnUse"
       xlink:href="#linearGradient8424"
       y2="18"
       id="linearGradient8446" />
    <linearGradient
       id="linearGradient6092">
      <stop
         offset="0"
         stop-color="#fff"
         id="stop6094" />
      <stop
         offset=".1"
         stop-opacity=".23529"
         stop-color="#fff"
         id="stop6096" />
      <stop
         offset=".85714"
         stop-opacity=".15686"
         stop-color="#fff"
         id="stop6098" />
      <stop
         offset="1"
         stop-opacity=".39216"
         stop-color="#fff"
         id="stop6100" />
    </linearGradient>
    <linearGradient
       x1="9"
       y1="21"
       x2="9"
       gradientUnits="userSpaceOnUse"
       xlink:href="#linearGradient8424"
       y2="18"
       id="linearGradient8430-1" />
    <linearGradient
       x1="24"
       y1="7"
       x2="24"
       gradientUnits="userSpaceOnUse"
       xlink:href="#linearGradient6092"
       y2="14"
       id="linearGradient8404-9"
       gradientTransform="matrix(1.0731118,0,0,0.99998985,-2.2912421,-2.9998632)" />
    <linearGradient
       x1="11.954545"
       y1="34"
       gradientTransform="matrix(0,1.1,-1.0833333,0,52.291662,11.85)"
       x2="21.045454"
       gradientUnits="userSpaceOnUse"
       y2="34"
       id="linearGradient8537-3">
      <stop
         offset="0"
         stop-color="#fff"
         id="stop3926-9-4-9-6-6" />
      <stop
         offset="0.00000004"
         stop-opacity=".23529"
         stop-color="#fff"
         id="stop3928-9-8-6-5-5" />
      <stop
         offset="1"
         stop-opacity=".15686"
         stop-color="#fff"
         id="stop3930-3-5-1-7-6" />
      <stop
         offset="1"
         stop-opacity=".39216"
         stop-color="#fff"
         id="stop3932-8-0-4-8-3" />
    </linearGradient>
    <linearGradient
       x1="633.38"
       y1="226.17"
       gradientTransform="matrix(4.16385,0,0,3.8097838,-2602.2406,-832.96093)"
       x2="633.38"
       gradientUnits="userSpaceOnUse"
       xlink:href="#linearGradient6092"
       y2="229.92999"
       id="linearGradient6572-9-1-9" />
    <linearGradient
       x1="8"
       y1="15"
       gradientTransform="matrix(3.6666299,0,0,3.3325083,4.6666295,-3.8215892)"
       x2="8"
       gradientUnits="userSpaceOnUse"
       y2="10"
       id="linearGradient5610-3-8-4">
      <stop
         offset="0"
         stop-color="#ae6a37"
         id="stop5606-8-2-8" />
      <stop
         offset="1"
         stop-color="#d28e5b"
         id="stop5608-5-0-1" />
    </linearGradient>
    <linearGradient
       x1="9"
       y1="10"
       gradientTransform="matrix(3.6666299,0,0,3.3325083,4.6666295,-3.8215892)"
       x2="9"
       gradientUnits="userSpaceOnUse"
       y2="15"
       id="linearGradient5618-5-7-2">
      <stop
         offset="0"
         stop-opacity=".625"
         stop-color="#492714"
         id="stop5614-2-5-9" />
      <stop
         offset="1"
         stop-opacity=".76953"
         stop-color="#6a3f1f"
         id="stop5616-0-2-3" />
    </linearGradient>
    <linearGradient
       x1="20"
       y1="27"
       gradientTransform="matrix(1.0714286,0,0,1.0833333,-2.7500002,-5.2083322)"
       x2="20"
       gradientUnits="userSpaceOnUse"
       y2="38"
       id="linearGradient8827-9">
      <stop
         style="stop-color:#64baff;stop-opacity:1"
         offset="0"
         stop-color="#6db0de"
         id="stop8823-0" />
      <stop
         style="stop-color:#8cd5ff;stop-opacity:1"
         offset="1"
         stop-color="#a4cae4"
         id="stop8825-8" />
    </linearGradient>
    <radialGradient
       r="4.5"
       gradientTransform="matrix(1.0844835,0,0,0.72301102,14.781902,3.2863549)"
       cx="12.5"
       cy="20"
       gradientUnits="userSpaceOnUse"
       xlink:href="#linearGradient3104-8-8-97-4-6-2-0-1-4-0-5-8"
       id="radialGradient8807-3" />
    <radialGradient
       r="4.5"
       gradientTransform="matrix(0.90373264,0,0,0.60251099,17.312002,5.2386119)"
       cx="12.5"
       cy="20"
       gradientUnits="userSpaceOnUse"
       xlink:href="#linearGradient3104-8-8-97-4-6-2-0-1-4-0-5-8"
       id="radialGradient8809-8" />
    <linearGradient
       id="linearGradient916">
      <stop
         id="stop912"
         offset="0"
         style="stop-color:#452981;stop-opacity:1;" />
      <stop
         style="stop-color:#7239b3;stop-opacity:1"
         offset="0.51779634"
         id="stop928" />
      <stop
         id="stop914"
         offset="1"
         style="stop-color:#7239b3;stop-opacity:1" />
    </linearGradient>
    <linearGradient
       gradientUnits="userSpaceOnUse"
       y2="3.5499094"
       x2="7"
       y1="19"
       x1="7"
       id="linearGradient924"
       xlink:href="#linearGradient916" />
  </defs>
  <metadata
     id="metadata4394">
    <rdf:RDF>
      <cc:Work
         rdf:about="">
        <dc:format>image/svg+xml</dc:format>
        <dc:type
           rdf:resource="http://purl.org/dc/dcmitype/StillImage" />
      </cc:Work>
    </rdf:RDF>
  </metadata>
  <rect
     ry="3"
     rx="3"
     y="-44"
     x="-45"
     height="40"
     width="32"
     id="rect4388"
     style="display:inline;opacity:0.2;fill:#000000;fill-opacity:1;stroke:none;enable-background:new"
     transform="matrix(0,-1,-1,0,0,0)" />
  <path
     style="display:inline;fill:#fcb96f;fill-opacity:1;stroke:none;enable-background:new"
     d="M 12,8 V 40 H 44 V 11 C 44,9.338 42.662,8 41,8 Z"
     id="rect4429"
     inkscape:connector-curvature="0"
     sodipodi:nodetypes="cccssc" />
  <path
     style="display:inline;fill:#fada7b;fill-opacity:1;stroke:none;enable-background:new"
     d="m 12,26 c 13.85449,0 25.01633,3.32907 32,6.14648 V 34 38 H 12 Z"
     id="rect4423"
     inkscape:connector-curvature="0"
     sodipodi:nodetypes="cccccc" />
  <path
     style="display:inline;opacity:0.2;fill:#ffffff;fill-opacity:1;stroke:none;enable-background:new"
     d="m 12,26 c 13.85449,0 25.01633,3.32907 32,6.14648 v 1 C 37.01633,30.32907 25.85449,27 12,27 Z"
     id="path4481"
     inkscape:connector-curvature="0"
     sodipodi:nodetypes="ccccc" />
  <path
     style="display:inline;fill:#aaa09b;fill-opacity:1;stroke:none;enable-background:new"
     d="M 7,8 C 5.338,8 4,9.338 4,11 v 23 4 3 c 0,1.662 1.338,3 3,3 h 6 V 38 34 8 Z"
     id="path910"
     inkscape:connector-curvature="0"
     sodipodi:nodetypes="ssccssccccs" />
  <path
     style="display:inline;fill:#554741;fill-opacity:1;stroke:none;enable-background:new"
     d="m 13,38 v 6 h 28 c 1.662,0 3,-1.338 3,-3 v -3 z"
     id="path908"
     inkscape:connector-curvature="0"
     sodipodi:nodetypes="ccsscc" />
  <path
     style="display:inline;opacity:0.2;fill:#ffffff;fill-opacity:1;stroke:none;enable-background:new"
     d="M 7,8 C 5.338,8 4,9.338 4,11 v 1 C 4,10.338 5.338,9 7,9 h 34 c 1.662,0 3,1.338 3,3 V 11 C 44,9.338 42.662,8 41,8 Z"
     id="rect4428"
     inkscape:connector-curvature="0"
     sodipodi:nodetypes="sscsscsss" />
  <rect
     y="-20"
     x="-30"
     height="3"
     width="23"
     id="rect1955-3"
     style="display:inline;fill:#8a7d77;fill-opacity:1;stroke:none;stroke-width:1.63299;stroke-linecap:round;stroke-linejoin:miter;stroke-miterlimit:10;stroke-dasharray:none;stroke-dashoffset:0;stroke-opacity:1;enable-background:new"
     ry="1.5"
     transform="scale(-1)" />
  <path
     inkscape:connector-curvature="0"
     id="path1672"
     d="m 28.55859,4.18945 c -1.03744,0 -4.50195,9.56429 -4.50195,17.34375 0,0.84991 0.0785,1.94316 0.20508,3.13477 l -0.46289,0.002 c -0.0599,0.002 -0.1172,0.0247 -0.16211,0.0645 l -4.08399,3.83789 c -0.18954,0.16842 -0.32065,0.39256 -0.37304,0.64062 l -1.61914,12.63281 c -0.008,0.0384 0.002,0.07 0.0195,0.0957 0.0474,0.0692 0.16333,0.0865 0.21484,-0.006 L 22.1777,33.289 c 0.24003,-0.42794 0.71951,-0.6643 1.20508,-0.59375 l 2.17188,0.31641 c 0.12051,0.59353 0.24836,1.05364 0.32031,1.29492 l 0.0176,0.38281 h -0.002 c -0.1503,0.73931 -0.63433,3.31967 -0.19531,3.39844 1.31713,0.23625 4.42113,0.24316 5.73828,0 0.43678,-0.0806 -0.0407,-2.64859 -0.24023,-3.38086 l 0.008,-0.43555 c 0.0778,-0.2552 0.20163,-0.69675 0.31836,-1.2539 l 2.21485,-0.32227 c 0.48556,-0.0706 0.96309,0.16582 1.20312,0.59375 l 4.38477,8.64649 c 0.0519,0.0929 0.16806,0.0762 0.21484,0.006 v -0.002 c 0.0165,-0.0254 0.0258,-0.0566 0.0176,-0.0937 L 37.93571,29.21298 c -0.0523,-0.24806 -0.1816,-0.47221 -0.3711,-0.64062 l -4.08593,-3.83594 c -0.0449,-0.0397 -0.10224,-0.0643 -0.16211,-0.0664 l -0.47071,-0.002 c 0.13123,-1.20005 0.21485,-2.29571 0.21485,-3.13477 0,-7.77946 -3.46451,-17.34375 -4.50196,-17.34375 z"
     style="clip-rule:evenodd;display:inline;opacity:0.05;fill:none;fill-opacity:1;fill-rule:nonzero;stroke:#000000;stroke-width:2;stroke-miterlimit:10;stroke-dasharray:none;stroke-opacity:1;enable-background:new"
     sodipodi:nodetypes="csccccccccccccccccccccccccccccccscc" />
  <path
     sodipodi:nodetypes="cccccccccccccccccccccccccc"
     inkscape:connector-curvature="0"
     id="path922"
     d="m 32.84608,23.66832 -2.41303,-0.16669 -1.5,8.625 2.58694,-0.10887 2.21379,-0.32149 c 0.48557,-0.0706 0.96439,0.16534 1.20442,0.59327 l 4.38362,8.64535 c 0.0707,0.1266 0.26411,0.0532 0.23284,-0.0884 L 37.93604,28.21324 c -0.0523,-0.24806 -0.18294,-0.47283 -0.37245,-0.64125 l -4.08465,-3.83652 c -0.0449,-0.0396 -0.10225,-0.0625 -0.16214,-0.0646 z m -8.58369,3.4e-4 -0.46308,0.002 c -0.0599,0.002 -0.11724,0.0249 -0.16215,0.0646 l -4.08464,3.83651 c -0.18954,0.16841 -0.32007,0.39318 -0.37245,0.64125 l -1.61862,12.63324 c -0.0313,0.14161 0.16218,0.21505 0.23284,0.0884 l 4.38362,-8.64536 c 0.24003,-0.42794 0.71891,-0.66383 1.20448,-0.59328 l 2.17227,0.31545 3.00339,0.11486 -1.5,-8.625 z"
     style="clip-rule:evenodd;display:inline;fill:#ececec;fill-opacity:1;fill-rule:nonzero;stroke:none;stroke-width:0.0340227;stroke-miterlimit:10;enable-background:new" />
  <path
     sodipodi:nodetypes="cccc"
     d="m 25.8916,33.68993 c -0.15031,0.73931 -0.63517,3.31983 -0.19615,3.3986 1.31713,0.23625 4.42136,0.24316 5.73851,0 0.43678,-0.0806 -0.0407,-2.64877 -0.24027,-3.38104"
     style="clip-rule:evenodd;display:inline;fill:#d9d9d9;fill-opacity:1;fill-rule:nonzero;stroke:none;stroke-width:0.0340227;stroke-miterlimit:10;stroke-opacity:1;enable-background:new"
     id="path924"
     inkscape:connector-curvature="0" />
  <path
     id="path928"
     d="m 27.05805,23.50163 -2.79565,0.167 -0.46308,0.002 c -0.0599,0.002 -0.11731,0.0249 -0.16222,0.0646 l -4.08454,3.8366 c -0.18954,0.16842 -0.32004,0.39318 -0.37243,0.64124 l -1.6186,12.6333 c -0.008,0.0382 1.9e-4,0.0705 0.0176,0.0961 l 1.60102,-12.54193 c 0.0524,-0.24806 0.18289,-0.47283 0.37243,-0.64124 l 4.08454,-3.8366 c 0.0449,-0.0397 0.10234,-0.0625 0.16222,-0.0646 l 0.46308,-0.002 2.79565,-0.16699 1.46723,8.43621 0.0328,9.4e-4 z m 3.375,0 -1.5,8.625 0.0328,-0.002 1.46722,-8.43603 2.41297,0.16662 0.47076,0.003 c 0.0599,0.002 0.11732,0.0249 0.16223,0.0647 l 4.08453,3.83643 c 0.18951,0.16841 0.32008,0.39317 0.37244,0.64123 l 1.60101,12.54211 c 0.0174,-0.0257 0.026,-0.0581 0.0175,-0.0963 L 37.93592,28.2131 c -0.0523,-0.24806 -0.18293,-0.47283 -0.37243,-0.64124 l -4.08454,-3.83643 c -0.0449,-0.0397 -0.10235,-0.0625 -0.16222,-0.0646 l -0.47077,-0.003 z"
     style="clip-rule:evenodd;display:inline;opacity:0.2;fill:#ffffff;fill-opacity:1;fill-rule:nonzero;stroke-width:0.0340227;stroke-miterlimit:10;enable-background:new"
     inkscape:connector-curvature="0"
     sodipodi:nodetypes="cccccccccccccccccccccccccccccccccc" />
  <path
     sodipodi:nodetypes="csccccsccccssc"
     inkscape:connector-curvature="0"
     id="path930"
     d="m 28.55808,3.18974 c -1.03744,0 -4.50188,9.56373 -4.50188,17.34319 0,0.84991 0.0796,1.94405 0.20619,3.13566 l 1.29227,8.34312 c 0.12051,0.59353 0.24774,1.05444 0.31969,1.29572 l 0.0173,0.3825 c 0.3646,0.19887 1.526,0.4655 2.66645,0.47743 1.19308,0.0125 2.0566,-0.20912 2.63564,-0.45987 l 0.007,-0.43548 c 0.0778,-0.2552 0.2023,-0.6971 0.31903,-1.25425 l 1.32608,-8.34944 c 0.13123,-1.20005 0.21384,-2.29633 0.21384,-3.13539 0,-7.77946 -3.46437,-17.34319 -4.50182,-17.34319 z"
     style="clip-rule:evenodd;display:inline;fill:#ffffff;fill-opacity:1;fill-rule:nonzero;stroke:none;stroke-width:0.0340227;stroke-miterlimit:10;enable-background:new" />
  <path
     sodipodi:nodetypes="ccccc"
     inkscape:connector-curvature="0"
     id="path932"
     style="clip-rule:evenodd;display:inline;fill:#47b9c8;fill-opacity:1;fill-rule:nonzero;stroke-width:0.0340227;stroke-miterlimit:10;enable-background:new"
     d="m 30.44702,10.31373 c -0.81198,0.80058 -2.96595,0.80058 -3.77793,0 -0.35717,-0.35217 0.0591,-1.88683 0.39428,-2.17289 0.34645,-0.29569 2.65125,-0.28858 2.98937,0 0.33526,0.28606 0.75146,1.82072 0.39428,2.17289" />
  <path
     style="color:#000000;font-style:normal;font-variant:normal;font-weight:normal;font-stretch:normal;font-size:medium;line-height:normal;font-family:sans-serif;font-variant-ligatures:normal;font-variant-position:normal;font-variant-caps:normal;font-variant-numeric:normal;font-variant-alternates:normal;font-feature-settings:normal;text-indent:0;text-align:start;text-decoration:none;text-decoration-line:none;text-decoration-style:solid;text-decoration-color:#000000;letter-spacing:normal;word-spacing:normal;text-transform:none;writing-mode:lr-tb;direction:ltr;text-orientation:mixed;dominant-baseline:auto;baseline-shift:baseline;text-anchor:start;white-space:normal;shape-padding:0;clip-rule:evenodd;display:inline;overflow:visible;visibility:visible;isolation:auto;mix-blend-mode:normal;color-interpolation:sRGB;color-interpolation-filters:linearRGB;solid-color:#000000;solid-opacity:1;vector-effect:none;fill:#fada7b;fill-opacity:1;fill-rule:evenodd;stroke:none;stroke-width:1.125;stroke-linecap:butt;stroke-linejoin:miter;stroke-miterlimit:10;stroke-dasharray:none;stroke-dashoffset:0;stroke-opacity:1;color-rendering:auto;image-rendering:auto;shape-rendering:auto;text-rendering:auto;enable-background:accumulate"
     d="m 25.31068,25.72472 0.182,1.17499 c 0.84576,0.14322 1.90773,0.26696 3.06537,0.26696 1.14838,0 2.20228,-0.12191 3.04469,-0.26367 l 0.18658,-1.17535 c -0.83717,0.15863 -1.97549,0.31402 -3.23127,0.31402 -1.26351,0 -2.40876,-0.1573 -3.24737,-0.31695 z m 0.38544,2.48767 0.18072,1.1673 c 0.77452,0.11547 1.69277,0.206 2.68121,0.206 0.97564,0 1.88246,-0.0883 2.65064,-0.2016 l 0.18549,-1.16748 c -0.78571,0.13125 -1.76767,0.24408 -2.83613,0.24408 -1.08002,0 -2.07206,-0.11522 -2.86193,-0.2483 z"
     id="path934"
     inkscape:connector-curvature="0"
     sodipodi:nodetypes="ccsccscccsccsc" />
  <rect
     y="11"
     x="7"
     height="3"
     width="3"
     id="rect991"
     style="display:inline;fill:#8a7d77;fill-opacity:1;stroke:none;stroke-width:0.738549;stroke-linecap:round;stroke-linejoin:miter;stroke-miterlimit:10;stroke-dasharray:none;stroke-dashoffset:0;stroke-opacity:1;enable-background:new"
     ry="1.5" />
  <rect
     ry="1.5"
     style="display:inline;fill:#8a7d77;fill-opacity:1;stroke:none;stroke-width:0.738549;stroke-linecap:round;stroke-linejoin:miter;stroke-miterlimit:10;stroke-dasharray:none;stroke-dashoffset:0;stroke-opacity:1;enable-background:new"
     id="rect1304"
     width="3"
     height="3"
     x="7"
     y="23" />
  <rect
     y="29"
     x="7"
     height="3"
     width="3"
     id="rect1306"
     style="display:inline;fill:#8a7d77;fill-opacity:1;stroke:none;stroke-width:0.738549;stroke-linecap:round;stroke-linejoin:miter;stroke-miterlimit:10;stroke-dasharray:none;stroke-dashoffset:0;stroke-opacity:1;enable-background:new"
     ry="1.5" />
  <rect
     ry="1.5"
     style="display:inline;fill:#8a7d77;fill-opacity:1;stroke:none;stroke-width:0.738549;stroke-linecap:round;stroke-linejoin:miter;stroke-miterlimit:10;stroke-dasharray:none;stroke-dashoffset:0;stroke-opacity:1;enable-background:new"
     id="rect1308"
     width="3"
     height="3"
     x="7"
     y="35" />
</svg>
