<?xml version="1.0" encoding="UTF-8"?>
<svg width="16" height="16" version="1.1" xmlns="http://www.w3.org/2000/svg" xmlns:cc="http://creativecommons.org/ns#" xmlns:dc="http://purl.org/dc/elements/1.1/" xmlns:rdf="http://www.w3.org/1999/02/22-rdf-syntax-ns#">
 <metadata>
  <rdf:RDF>
   <cc:Work rdf:about="">
    <dc:format>image/svg+xml</dc:format>
    <dc:type rdf:resource="http://purl.org/dc/dcmitype/StillImage"/>
    <dc:title>elementary Symbolic Icon Theme</dc:title>
   </cc:Work>
  </rdf:RDF>
 </metadata>
 <title>elementary Symbolic Icon Theme</title>
 <path d="m7.5 1c-0.64684 0-1.1978 0.42097-1.4062 1h-3.5938a0.50005 0.50005 0 1 0 0 1h3.5938c0.15186 0.42178 0.48447 0.75439 0.90625 0.90625v10.094h-4.4922a0.50005 0.50005 0 1 0 0 1h5.5938c0.16625-0.33756 0.3411-0.67022 0.52344-1h-0.625v-10.094c0.42178-0.15186 0.75439-0.48447 0.90625-0.90625h3.5938a0.50005 0.50005 0 1 0 0-1h-3.5938c-0.20848-0.57903-0.75941-1-1.4062-1zm0 1c0.27092 0 0.47782 0.20293 0.49414 0.46875a0.50005 0.50005 0 0 0 0 0.0625c-0.016316 0.26582-0.22322 0.46875-0.49414 0.46875s-0.47782-0.20293-0.49414-0.46875a0.50005 0.50005 0 0 0 0-0.0625c0.016316-0.26582 0.22322-0.46875 0.49414-0.46875zm-4.498 2a0.50005 0.50005 0 0 0-0.44922 0.27734l-2.4961 4.9922a0.50005 0.50005 0 0 0-0.052734 0.23047l0.0058594 0.5h-0.0097656c0.44971 1.272 1.6528 2.122 3.002 2.123 1.3484-0.0019 2.5486-0.85179 2.998-2.123h-0.5l0.5-0.0039062-0.0039062-0.50586a0.50005 0.50005 0 0 0-0.052734-0.2207l-2.4961-4.9941a0.50005 0.50005 0 0 0-0.44531-0.27539zm9 0a0.50005 0.50005 0 0 0-0.44922 0.27734l-2.4961 4.9922a0.50005 0.50005 0 0 0-0.052734 0.23047l0.0058594 0.5h-0.0097656c0.21278 0.60182 0.59432 1.1089 1.0801 1.4766 0.076863-0.13633 0.15362-0.27287 0.22852-0.41016 0.22003-0.3089 0.39465-0.69688 0.5918-1.0664h-1.3906l0.5-0.0058594-0.00586-0.38477 1.9961-3.9922 1.998 3.9961 0.001953 0.26172c2.87e-4 4.709e-4 -2.87e-4 0.0014822 0 0.0019531 0.19154 0.31401 0.37768 0.63076 0.5625 0.94922 0.18228-0.24786 0.33121-0.52555 0.4375-0.82617h-0.5l0.5-0.0039062-0.003906-0.50586a0.50005 0.50005 0 0 0-0.052735-0.2207l-2.4961-4.9941a0.50005 0.50005 0 0 0-0.44531-0.27539zm-9.002 1.6172 1.998 3.9961 0.0019531 0.38672h-4.4902l0.5-0.0058594-0.0058594-0.38477 1.9961-3.9922z" color="#000000" color-rendering="auto" dominant-baseline="auto" fill="#555761" image-rendering="auto" shape-rendering="auto" solid-color="#000000" style="font-feature-settings:normal;font-variant-alternates:normal;font-variant-caps:normal;font-variant-ligatures:normal;font-variant-numeric:normal;font-variant-position:normal;isolation:auto;mix-blend-mode:normal;shape-padding:0;text-decoration-color:#000000;text-decoration-line:none;text-decoration-style:solid;text-indent:0;text-orientation:mixed;text-transform:none;white-space:normal"/>
 <path class="warning" d="m12.932 10c-0.089469-0.15572-0.25327-0.25134-0.43157-0.2502-0.1783 0.00113-0.34385 0.096378-0.432 0.24983l-3.0029 5.2541c-0.1878 0.33336 0.053057 0.74604 0.43546 0.74608h5.9989c0.38238-7.5e-5 0.62322-0.41076 0.43546-0.74411l-3.0033-5.2558v-3.78e-5m-0.93157 0.99987h1v2h-1zm0 3h1v0.99999h-1z" color="#000000" fill="#f9c440" fill-rule="evenodd" stop-color="#000000" style="-inkscape-stroke:none;font-variation-settings:normal;paint-order:markers fill stroke"/>
</svg>
