<?xml version="1.0" encoding="UTF-8"?>
<svg width="16" height="16" version="1.1" xmlns="http://www.w3.org/2000/svg" xmlns:cc="http://creativecommons.org/ns#" xmlns:dc="http://purl.org/dc/elements/1.1/" xmlns:rdf="http://www.w3.org/1999/02/22-rdf-syntax-ns#">
 <metadata>
  <rdf:RDF>
   <cc:Work rdf:about="">
    <dc:format>image/svg+xml</dc:format>
    <dc:type rdf:resource="http://purl.org/dc/dcmitype/StillImage"/>
    <dc:title>elementary Symbolic Icon Theme</dc:title>
   </cc:Work>
  </rdf:RDF>
 </metadata>
 <title>elementary Symbolic Icon Theme</title>
 <path d="m7.5 1c-0.64684 0-1.1978 0.42097-1.4062 1h-3.5938a0.50005 0.50005 0 1 0 0 1h3.5938c0.15186 0.42178 0.48447 0.75439 0.90625 0.90625v10.094h-4.4922a0.50005 0.50005 0 1 0 0 1h6.252a4.5 4.5 0 0 1-0.50195-1h-0.25781v-1.5039-8.5898c0.42178-0.15186 0.75439-0.48447 0.90625-0.90625h3.5938a0.50005 0.50005 0 1 0 0-1h-3.5938c-0.20848-0.57903-0.75941-1-1.4062-1zm0 1c0.27092 0 0.47782 0.20293 0.49414 0.46875a0.50005 0.50005 0 0 0 0 0.0625c-0.016316 0.26582-0.22322 0.46875-0.49414 0.46875s-0.47782-0.20293-0.49414-0.46875a0.50005 0.50005 0 0 0 0-0.0625c0.016316-0.26582 0.22322-0.46875 0.49414-0.46875zm-4.498 2a0.50005 0.50005 0 0 0-0.44922 0.27734l-2.4961 4.9922a0.50005 0.50005 0 0 0-0.052734 0.23047l0.0058594 0.5h-0.0097656c0.44971 1.272 1.6528 2.122 3.002 2.123 1.3484-0.0019 2.5486-0.85179 2.998-2.123h-0.5l0.5-0.0039062-0.0039062-0.50586a0.50005 0.50005 0 0 0-0.052734-0.2207l-2.4961-4.9941a0.50005 0.50005 0 0 0-0.44531-0.27539zm9 0a0.50005 0.50005 0 0 0-0.44922 0.27734l-2.4961 4.9922a0.50005 0.50005 0 0 0-0.052734 0.23047l0.0019532 0.16211a4.5 4.5 0 0 1 1.5937-1.2441l1.4004-2.8008 1.2188 2.4375a4.5 4.5 0 0 1 1.3359 0.43945l-2.1074-4.2188a0.50005 0.50005 0 0 0-0.44531-0.27539zm-9.002 1.6172 1.998 3.9961 0.0019531 0.38672h-4.4902l0.5-0.0058594-0.0058594-0.38477 1.9961-3.9922z" color="#000000" color-rendering="auto" dominant-baseline="auto" fill="#555761" image-rendering="auto" shape-rendering="auto" solid-color="#000000" style="font-feature-settings:normal;font-variant-alternates:normal;font-variant-caps:normal;font-variant-ligatures:normal;font-variant-numeric:normal;font-variant-position:normal;isolation:auto;mix-blend-mode:normal;shape-padding:0;text-decoration-color:#000000;text-decoration-line:none;text-decoration-style:solid;text-indent:0;text-orientation:mixed;text-transform:none;white-space:normal"/>
 <path class="error" d="m12.5 8.997a3.5 3.5 0 1 0 0 7 3.5 3.5 0 0 0 0-7zm-0.5 1h1v3h-1zm0 4h1v1h-1z" color="#bebebe" fill="#ef2929" overflow="visible"/>
</svg>
