<?xml version="1.0" encoding="UTF-8"?>
<svg width="16" height="16" version="1.1" xml:space="preserve" xmlns="http://www.w3.org/2000/svg"><path transform="scale(1,-1)" d="m8-2c-0.5314 0-1.0635-0.11693-1.4707-0.34961l-4.918-2.8105c-0.81437-0.46535-0.81437-1.2143 0-1.6797l4.918-2.8105c0.81437-0.46535 2.127-0.46535 2.9414 0l1.5293 0.87305v0.070313l-1.9766 1.9766a1.5 1 0 0 0-1.0234-0.26953 1.5 1 0 0 0-1.5 1 1.5 1 0 0 0 1.5 1 1.5 1 0 0 0 1.4492-0.74219v-0.0019531l2.4941-2.4922 2.4453 1.3965c0.81437 0.46535 0.81437 1.2143 0 1.6797l-4.918 2.8105c-0.40718 0.23268-0.93931 0.34961-1.4707 0.34961zm-5-7.1953v-1.8555c0-1.6338 2.23-2.9492 5-2.9492 1.1274 0 2.1654 0.21732 3 0.58594v3.0762l-1.5293-0.875c-0.81437-0.46535-2.127-0.46535-2.9414 0l-3.5293 2.0176zm10 0-1-0.57227v-3.0508c0.62509 0.49231 1 1.1025 1 1.7676v1.8555zm-1.041-3.6582c-0.1216-0.092953-0.24943-0.18181-0.38867-0.26562 0.13968 0.083847 0.26675 0.17239 0.38867 0.26562z" fill="#555761" style="-inkscape-stroke:none"/><path d="m11.943 8.2363-0.94336 0.54102v1.5605l1-0.57031v-1.4746l-0.056641-0.056641zm0.056641 4.5879c-0.28433 0.2231-0.62121 0.42254-1 0.58984v0.87891l-0.85352 0.85352a0.5 0.5 0 0 0 0 0.70703 0.5 0.5 0 0 0 0.70703 0l0.64648-0.64648 0.64648 0.64648a0.5 0.5 0 0 0 0.70703 0 0.5 0.5 0 0 0 0-0.70703l-0.85352-0.85352v-1.4688z" fill="#555761" stop-color="#000000" stroke-linecap="round"/></svg>
