<?xml version="1.0" encoding="UTF-8" standalone="no"?>
<svg
   id="svg6"
   version="1.1"
   width="32"
   height="32"
   xml:space="preserve"
   xmlns="http://www.w3.org/2000/svg"
   xmlns:svg="http://www.w3.org/2000/svg"
   xmlns:rdf="http://www.w3.org/1999/02/22-rdf-syntax-ns#"
   xmlns:cc="http://creativecommons.org/ns#"
   xmlns:dc="http://purl.org/dc/elements/1.1/"><metadata
     id="metadata12"><rdf:RDF><cc:Work
         rdf:about=""><dc:format>image/svg+xml</dc:format><dc:type
           rdf:resource="http://purl.org/dc/dcmitype/StillImage" /></cc:Work></rdf:RDF></metadata><defs
     id="defs10" /><g
     id="g4"
     transform="translate(-872,-552)"
     color="#000000" /><path
     id="rect354-5-7"
     style="fill:#555761;stroke-width:0.999987;-inkscape-stroke:none;stop-color:#000000"
     d="M -11 1 C -4.906031 1 0 5.906031 0 12 C 0 15.876435 -1.9867132 19.270474 -5 21.228516 L -5 27.5 C -5 27.51465 -5.0007193 27.528609 -5.0019531 27.542969 C -5.0238563 27.79945 -5.2376545 28 -5.5 28 C -5.51447 28 -5.5285288 27.999341 -5.5429688 27.998047 C -5.6679148 27.987377 -5.7797786 27.930907 -5.8613281 27.845703 L -10.175781 23.777344 C -9.9978675 22.931239 -9.9430298 22.060785 -10.029297 21.193359 C -8.8518064 22.282813 -7.4140625 23.613281 -7.4140625 23.613281 C -7.3701015 23.651721 -7.3129846 23.675781 -7.25 23.675781 C -7.1119293 23.675781 -7 23.563852 -7 23.425781 L -7 20.634766 C -6.9999901 20.323163 -6.8421409 20.033958 -6.5839844 19.855469 L -6.3417969 19.681641 C -3.3319942 17.98755 -1.6621133 14.347762 -2.0507812 10.949219 C -2.4417113 6.987291 -5.7878621 3.5970588 -9.7207031 3.0820312 C -12.373636 2.9088562 -15.042375 3.0394073 -17.701172 3 C -17.879074 2.99191 -18.057802 2.986984 -18.236328 2.984375 C -19.48601 2.966111 -20.744368 3.090103 -21.933594 3.4863281 C -25.772674 4.7045822 -28.346788 8.7837225 -27.976562 12.765625 C -27.960576 13.004997 -27.931606 13.243083 -27.894531 13.478516 C -28.541121 13.704623 -29.162442 14.005605 -29.744141 14.369141 C -29.910353 13.606378 -30 12.814017 -30 12 C -30 5.906031 -25.093969 1 -19 1 L -11 1 z M -19 15 C -15.122012 15 -12 18.122012 -12 22 C -12 25.877988 -15.122012 29 -19 29 L -24.070312 29 L -27.138672 31.845703 C -27.220222 31.930903 -27.332084 31.98738 -27.457031 31.998047 C -27.471471 31.999247 -27.48553 32 -27.5 32 C -27.762347 32 -27.97615 31.799454 -27.998047 31.542969 C -27.999247 31.528609 -28 31.51465 -28 31.5 L -28 28.330078 C -30.368925 27.21054 -32 24.803203 -32 22 C -32 18.122012 -28.877988 15 -25 15 L -19 15 z M -18 21 A 1 1 0 0 0 -19 22 A 1 1 0 0 0 -18 23 A 1 1 0 0 0 -17 22 A 1 1 0 0 0 -18 21 z M -22 21 A 1 1 0 0 0 -23 22 A 1 1 0 0 0 -22 23 A 1 1 0 0 0 -21 22 A 1 1 0 0 0 -22 21 z M -26 21 A 1 1 0 0 0 -27 22 A 1 1 0 0 0 -26 23 A 1 1 0 0 0 -25 22 A 1 1 0 0 0 -26 21 z "
     transform="scale(-1,1)" /></svg>
