<?xml version="1.0" encoding="UTF-8" standalone="no"?>
<svg
   id="svg6"
   version="1.1"
   width="32"
   height="32"
   xmlns="http://www.w3.org/2000/svg"
   xmlns:svg="http://www.w3.org/2000/svg"
   xmlns:rdf="http://www.w3.org/1999/02/22-rdf-syntax-ns#"
   xmlns:cc="http://creativecommons.org/ns#"
   xmlns:dc="http://purl.org/dc/elements/1.1/">
  <metadata
     id="metadata12">
    <rdf:RDF>
      <cc:Work
         rdf:about="">
        <dc:format>image/svg+xml</dc:format>
        <dc:type
           rdf:resource="http://purl.org/dc/dcmitype/StillImage" />
      </cc:Work>
    </rdf:RDF>
  </metadata>
  <defs
     id="defs10" />
  <path
     id="rect845"
     d="m 3,19 c 0,1.108 0.8919998,2 2,2 h 4 c 1.108,0 2,-0.892 2,-2 0,-1.108 -0.892,-2 -2,-2 H 4.9999998 c -1.108,0 -2,0.892 -1.9999998,2 z m 0,-6 c -2e-7,1.108 0.8919998,2 1.9999998,2 H 9 c 1.108,0 2,-0.892 2,-2 0,-1.108 -0.892,-2 -2.0000002,-2 H 5 C 3.8919998,11 3,11.892 3,13 Z M 4.9999996,25.03125 C 5,26.121938 5.8919998,27 7,27 h 2 c 1.107999,0 2,-0.878062 2.000002,-1.968748 l -4e-6,-0.0625 C 11,23.878062 10.108,23 9,23 H 7 C 5.8919998,23 5,23.878062 4.9999998,24.96875 Z M 4.9999998,7 c 0,1.108 0.892,2 2,2 h 2 C 10.108,9 11,8.108 11,7 11,5.8920008 10.108,5.0000008 9,5.0000008 H 6.9999998 c -1.1080002,0 -2,0.8919998 -2,1.9999992 z m 6.6289062,15 c 0.835184,0.73207 1.371093,1.797026 1.371093,3 0,0.73386 -0.208582,1.409998 -0.55078,2 H 17 18.999998 c 2.643824,0 4.852732,-1.704956 5.65625,-4.070312 0.115842,0.02072 0.221766,0.07031 0.34375,0.07031 H 27 c 1.108,0 2,-0.892002 2,-2 v -8 c 0,-1.108 -0.892,-2 -2,-2 H 25 C 25,9.199436 24.19728,7.609668 22.949218,6.511718 22.96898,6.673522 23.000006,6.832676 23,7 v 2 c 2e-6,2.216 -1.783998,4 -4,4 v 2 c -1e-6,2.216 -1.784001,4 -4,4 -0.757671,0 -1.455965,-0.218964 -2.058594,-0.58203 C 12.969302,18.60937 13,18.80063 13,19 c 0,1.202974 -0.53591,2.267932 -1.371094,3 z M 13,15 c 0,1.108 0.892,2 2,2 1.108,0 2,-0.892 2,-2 v -4 h 2 c 1.108,0 2.000002,-0.892 2,-2 V 7 C 21,5.8919994 20.108002,4.9999996 19,5.0000008 L 15.000001,5 c -1.108,-2e-7 -2,0.8919994 -2.000001,2 v 2 z"
     style="opacity:1;vector-effect:none;fill:#666666;fill-opacity:1;stroke:none;stroke-width:5;stroke-linecap:round;stroke-linejoin:round;stroke-miterlimit:4;stroke-dasharray:none;stroke-dashoffset:0;stroke-opacity:1;marker:none;paint-order:normal" />
  <g
     id="g4"
     transform="translate(-872,-552)"
     color="#000000" />
</svg>
