<?xml version="1.0" encoding="UTF-8" standalone="no"?>
<svg
   id="svg6"
   version="1.1"
   width="32"
   height="32"
   xmlns="http://www.w3.org/2000/svg"
   xmlns:svg="http://www.w3.org/2000/svg"
   xmlns:rdf="http://www.w3.org/1999/02/22-rdf-syntax-ns#"
   xmlns:cc="http://creativecommons.org/ns#"
   xmlns:dc="http://purl.org/dc/elements/1.1/">
  <metadata
     id="metadata12">
    <rdf:RDF>
      <cc:Work
         rdf:about="">
        <dc:format>image/svg+xml</dc:format>
        <dc:type
           rdf:resource="http://purl.org/dc/dcmitype/StillImage" />
      </cc:Work>
    </rdf:RDF>
  </metadata>
  <defs
     id="defs10" />
  <path
     id="rect1163"
     style="font-variation-settings:normal;opacity:1;vector-effect:none;fill:#555761;fill-opacity:1;stroke:none;stroke-width:4;stroke-linecap:round;stroke-linejoin:round;stroke-miterlimit:4;stroke-dasharray:none;stroke-dashoffset:0;stroke-opacity:1;-inkscape-stroke:none;stop-color:#000000;stop-opacity:1"
     d="m 16.000013,1 c -0.646668,0 -1.29355,0.1233421 -1.789061,0.3710935 L 2.7422123,7.1054633 C 2.2445465,7.3542921 1.9971203,7.6790462 2.0000253,8.0038999 l 0.0039,16.0468611 c 0.023298,0.306744 0.267912,0.608568 0.7382808,0.84375 l 11.4687399,5.734368 c 0.991021,0.495504 2.587101,0.495504 3.578122,0 l 11.468739,-5.734368 c 0.477142,-0.238568 0.721131,-0.548128 0.738281,-0.859376 l 0.0039,-16.0390475 C 29.998722,7.6739646 29.751293,7.3521991 29.257813,7.1054633 L 17.789074,1.3710935 C 17.293563,1.1233421 16.646681,1 16.000013,1 Z m 0,5.9999946 A 1.9999982,0.9999991 0 0 1 18.000011,7.9999937 1.9999982,0.9999991 0 0 1 16.000013,8.9999928 1.9999982,0.9999991 0 0 1 14.000015,7.9999937 1.9999982,0.9999991 0 0 1 16.000013,6.9999946 Z M 7.0000208,12.999989 A 0.9999991,1.9999982 0 0 1 8.00002,14.999987 0.9999991,1.9999982 0 0 1 7.0000208,16.999986 0.9999991,1.9999982 0 0 1 6.0000217,14.999987 0.9999991,1.9999982 0 0 1 7.0000208,12.999989 Z m 17.9999842,0 a 0.9999991,1.9999982 0 0 1 0.999999,1.999998 0.9999991,1.9999982 0 0 1 -0.999999,1.999999 0.9999991,1.9999982 0 0 1 -0.999999,-1.999999 0.9999991,1.9999982 0 0 1 0.999999,-1.999998 z m -5.999995,1.999998 a 0.9999991,1.9999982 0 0 1 0.999999,1.999999 0.9999991,1.9999982 0 0 1 -0.999999,1.999998 0.9999991,1.9999982 0 0 1 -0.999999,-1.999998 0.9999991,1.9999982 0 0 1 0.999999,-1.999999 z m -7.999992,3.999997 a 0.9999991,1.9999982 0 0 1 0.999999,1.999998 0.9999991,1.9999982 0 0 1 -0.999999,1.999998 0.9999991,1.9999982 0 0 1 -1,-1.999998 0.9999991,1.9999982 0 0 1 1,-1.999998 z m 13.999987,0 a 0.9999991,1.9999982 0 0 1 0.999999,1.999998 0.9999991,1.9999982 0 0 1 -0.999999,1.999998 0.9999991,1.9999982 0 0 1 -0.999999,-1.999998 0.9999991,1.9999982 0 0 1 0.999999,-1.999998 z m -5.999995,1.999998 a 0.9999991,1.9999982 0 0 1 0.999999,1.999998 0.9999991,1.9999982 0 0 1 -0.999999,1.999998 0.9999991,1.9999982 0 0 1 -0.999999,-1.999998 0.9999991,1.9999982 0 0 1 0.999999,-1.999998 z" />
  <g
     id="g4"
     transform="translate(-872,-552)"
     color="#000000" />
</svg>
