<?xml version="1.0" encoding="UTF-8" standalone="no"?>
<svg
   id="svg6"
   version="1.1"
   width="16"
   height="16"
   xmlns="http://www.w3.org/2000/svg"
   xmlns:svg="http://www.w3.org/2000/svg"
   xmlns:rdf="http://www.w3.org/1999/02/22-rdf-syntax-ns#"
   xmlns:cc="http://creativecommons.org/ns#"
   xmlns:dc="http://purl.org/dc/elements/1.1/">
  <metadata
     id="metadata12">
    <rdf:RDF>
      <cc:Work
         rdf:about="">
        <dc:format>image/svg+xml</dc:format>
        <dc:type
           rdf:resource="http://purl.org/dc/dcmitype/StillImage" />
      </cc:Work>
    </rdf:RDF>
  </metadata>
  <defs
     id="defs10" />
  <path
     id="rect1163"
     style="fill:#555761;stroke-width:4;-inkscape-stroke:none;stop-color:#000000;font-variation-settings:normal;opacity:1;vector-effect:none;fill-opacity:1;stroke:none;stroke-linecap:round;stroke-linejoin:round;stroke-miterlimit:4;stroke-dasharray:none;stroke-dashoffset:0;stroke-opacity:1;stop-opacity:1"
     d="M 8 1 C 7.6766657 1 7.3532243 1.0616711 7.1054688 1.1855469 L 1.3710938 4.0527344 C 1.1222607 4.1771489 0.9985475 4.3395261 1 4.5019531 L 1.0019531 12.525391 C 1.0136021 12.678763 1.1359092 12.829675 1.3710938 12.947266 L 7.1054688 15.814453 C 7.6009797 16.062205 8.3990202 16.062205 8.8945312 15.814453 L 14.628906 12.947266 C 14.867477 12.827982 14.989472 12.673202 14.998047 12.517578 L 15 4.4980469 C 14.999361 4.3369853 14.875646 4.1761024 14.628906 4.0527344 L 8.8945312 1.1855469 C 8.6467757 1.0616711 8.3233343 1 8 1 z M 8 4 A 1 0.5 0 0 1 9 4.5 A 1 0.5 0 0 1 8 5 A 1 0.5 0 0 1 7 4.5 A 1 0.5 0 0 1 8 4 z M 3.5 7 A 0.5 1 0 0 1 4 8 A 0.5 1 0 0 1 3.5 9 A 0.5 1 0 0 1 3 8 A 0.5 1 0 0 1 3.5 7 z M 12.5 7 A 0.5 1 0 0 1 13 8 A 0.5 1 0 0 1 12.5 9 A 0.5 1 0 0 1 12 8 A 0.5 1 0 0 1 12.5 7 z M 9.5 8 A 0.5 1 0 0 1 10 9 A 0.5 1 0 0 1 9.5 10 A 0.5 1 0 0 1 9 9 A 0.5 1 0 0 1 9.5 8 z M 5.5 10 A 0.5 1 0 0 1 6 11 A 0.5 1 0 0 1 5.5 12 A 0.5 1 0 0 1 5 11 A 0.5 1 0 0 1 5.5 10 z M 12.5 10 A 0.5 1 0 0 1 13 11 A 0.5 1 0 0 1 12.5 12 A 0.5 1 0 0 1 12 11 A 0.5 1 0 0 1 12.5 10 z M 9.5 11 A 0.5 1 0 0 1 10 12 A 0.5 1 0 0 1 9.5 13 A 0.5 1 0 0 1 9 12 A 0.5 1 0 0 1 9.5 11 z " />
  <g
     id="g4"
     transform="translate(-872 -552)"
     color="#000" />
</svg>
