<?xml version="1.0" encoding="UTF-8" standalone="no"?>
<svg
   id="svg6"
   version="1.1"
   width="32"
   height="32"
   xmlns="http://www.w3.org/2000/svg"
   xmlns:svg="http://www.w3.org/2000/svg"
   xmlns:rdf="http://www.w3.org/1999/02/22-rdf-syntax-ns#"
   xmlns:cc="http://creativecommons.org/ns#"
   xmlns:dc="http://purl.org/dc/elements/1.1/">
  <metadata
     id="metadata12">
    <rdf:RDF>
      <cc:Work
         rdf:about="">
        <dc:format>image/svg+xml</dc:format>
        <dc:type
           rdf:resource="http://purl.org/dc/dcmitype/StillImage" />
      </cc:Work>
    </rdf:RDF>
  </metadata>
  <defs
     id="defs10" />
  <path
     id="rect826"
     d="M 11,3 C 4.906,3 0,7.8363124 0,13.84375 v 0.3125 C 0,18.916879 3.0869034,22.932696 7.3984376,24.398438 8.8187038,26.3667 7.5489986,27.451002 6,29 c 4,0 6.555031,-1.163936 8,-4 h 7 c 6.094,0 11,-4.836312 11,-10.84375 v -0.3125 C 32,7.8363124 27.094,3 21,3 Z M 8.875,9 h 0.25 C 9.60975,9 10,9.446 10,10 v 4 c 0,0.554 -0.39025,1 -0.875,1 H 8.875 C 8.39025,15 8,14.554 8,14 V 10 C 8,9.446 8.39025,9 8.875,9 Z m 7.9375,0 h 0.375 C 17.637625,9 18,9.446 18,10 v 1 h 2 v -1 c 0,-0.554 0.432062,-1 0.96875,-1 h 0.0625 C 21.567938,9 22,9.446 22,10 v 1 h 1 c 0.554,0 1,0.446 1,1 0,0.554 -0.446,1 -1,1 h -1 v 2 h 1.03125 C 23.567938,15 24,15.446 24,16 c 0,0.554 -0.432062,1 -0.96875,1 H 22 v 1 c 0,0.554 -0.432062,1 -0.96875,1 h -0.0625 C 20.432062,19 20,18.554 20,18 v -1 h -2 v 1 c 0,0.554 -0.362375,1 -0.8125,1 h -0.375 C 16.362375,19 16,18.554 16,18 V 17 H 14.96875 C 14.432063,17 14,16.554 14,16 c 0,-0.554 0.432063,-1 0.96875,-1 H 16 v -2 h -1 c -0.554,0 -1,-0.446 -1,-1 0,-0.554 0.446,-1 1,-1 h 1 V 10 C 16,9.446 16.362375,9 16.8125,9 Z M 18,13 v 2 h 2 v -2 z m -9,4 c 0.554,0 1,0.446 1,1 0,0.554 -0.446,1 -1,1 -0.554,0 -1,-0.446 -1,-1 0,-0.554 0.446,-1 1,-1 z"
     style="opacity:1;vector-effect:none;fill:#666666;fill-opacity:1;stroke:none;stroke-width:2;stroke-linecap:round;stroke-linejoin:round;stroke-miterlimit:4;stroke-dasharray:none;stroke-dashoffset:0;stroke-opacity:1" />
  <g
     id="g4"
     transform="translate(-872,-552)"
     color="#000000" />
</svg>
