<?xml version="1.0" encoding="UTF-8" standalone="no"?>
<svg
   id="svg6"
   version="1.1"
   width="32"
   height="32"
   xml:space="preserve"
   xmlns:xlink="http://www.w3.org/1999/xlink"
   xmlns="http://www.w3.org/2000/svg"
   xmlns:svg="http://www.w3.org/2000/svg"
   xmlns:rdf="http://www.w3.org/1999/02/22-rdf-syntax-ns#"
   xmlns:cc="http://creativecommons.org/ns#"
   xmlns:dc="http://purl.org/dc/elements/1.1/"><metadata
     id="metadata12"><rdf:RDF><cc:Work
         rdf:about=""><dc:format>image/svg+xml</dc:format><dc:type
           rdf:resource="http://purl.org/dc/dcmitype/StillImage" /></cc:Work></rdf:RDF></metadata><defs
     id="defs10"><filter
       style="color-interpolation-filters:sRGB"
       id="filter3831"
       x="-0.076499999"
       y="-0.067999999"
       width="1.153"
       height="1.136"><feGaussianBlur
         stdDeviation="0.6375"
         id="feGaussianBlur3833" /></filter><clipPath
       id="clipPath3823"><path
         style="fill:#ffffff;fill-opacity:1;stroke:none"
         id="path3825"
         d="M 108.8125,58 C 107.25437,58 106,59.254375 106,60.8125 v 24.375 C 106,86.745625 107.25437,88 108.8125,88 h 24.375 C 134.74562,88 136,86.745625 136,85.1875 V 60.8125 C 136,59.254375 134.74562,58 133.1875,58 Z M 116,62.5 h 10 v 8.75 h 5 L 121,85 111,71.25 h 5 z" /></clipPath><linearGradient
       gradientTransform="matrix(0.625,0,0,0.625,78.5,32.25)"
       gradientUnits="userSpaceOnUse"
       xlink:href="#linearGradient5010"
       id="linearGradient3812"
       y2="50.068527"
       x2="65.262688"
       y1="64.205269"
       x1="65.262688" /><filter
       style="color-interpolation-filters:sRGB"
       id="filter3806"
       x="-0.096000004"
       y="-0.096000004"
       width="1.192"
       height="1.192"><feGaussianBlur
         stdDeviation="1.2"
         id="feGaussianBlur3808" /></filter><linearGradient
       gradientTransform="translate(0,4)"
       gradientUnits="userSpaceOnUse"
       xlink:href="#linearGradient3737"
       id="linearGradient3788"
       y2="75.095024"
       x2="70"
       y1="54"
       x1="70" /><linearGradient
       gradientTransform="matrix(0.9375,0,0,0.9375,-140.5,3.5)"
       gradientUnits="userSpaceOnUse"
       xlink:href="#linearGradient3778"
       id="linearGradient3773"
       y2="72"
       x2="88"
       y1="72"
       x1="56" /><linearGradient
       gradientTransform="matrix(0.625,0,0,0.625,28.5,31.25)"
       gradientUnits="userSpaceOnUse"
       xlink:href="#linearGradient3737"
       id="linearGradient3832"
       y2="50.068527"
       x2="65.262688"
       y1="64.205269"
       x1="65.262688" /><filter
       style="color-interpolation-filters:sRGB"
       id="filter3174"
       x="-0.047720931"
       y="-0.047172415"
       width="1.0954419"
       height="1.0943448"><feGaussianBlur
         stdDeviation="1.71"
         id="feGaussianBlur3176" /></filter><linearGradient
       id="linearGradient3737"><stop
         offset="0"
         style="stop-color:#ffffff;stop-opacity:1"
         id="stop3739" /><stop
         offset="1"
         style="stop-color:#ffffff;stop-opacity:0"
         id="stop3741" /></linearGradient><linearGradient
       gradientTransform="scale(1.0058652,0.994169)"
       gradientUnits="userSpaceOnUse"
       id="ButtonShadow"
       y2="7.0165396"
       x2="45.447727"
       y1="92.539597"
       x1="45.447727"><stop
         offset="0"
         style="stop-color:#000000;stop-opacity:1"
         id="stop3750" /><stop
         offset="1"
         style="stop-color:#000000;stop-opacity:0.58823532"
         id="stop3752" /></linearGradient><linearGradient
       id="linearGradient5010"><stop
         offset="0"
         style="stop-color:#000000;stop-opacity:1"
         id="stop5012" /><stop
         offset="1"
         style="stop-color:#000000;stop-opacity:0"
         id="stop5014" /></linearGradient><linearGradient
       id="linearGradient3778"><stop
         offset="0"
         style="stop-color:#499119;stop-opacity:1"
         id="stop3780" /><stop
         offset="1"
         style="stop-color:#8fd625;stop-opacity:1"
         id="stop3782" /></linearGradient><filter
       color-interpolation-filters="sRGB"
       id="filter3831-3"
       x="-0.076499999"
       y="-0.067999999"
       width="1.153"
       height="1.136"><feGaussianBlur
         stdDeviation="0.6375"
         id="feGaussianBlur3833-6" /></filter><clipPath
       id="clipPath3823-1"><path
         d="M 108.8125,58 C 107.25437,58 106,59.254375 106,60.8125 v 24.375 C 106,86.745625 107.25437,88 108.8125,88 h 24.375 C 134.74562,88 136,86.745625 136,85.1875 V 60.8125 C 136,59.254375 134.74562,58 133.1875,58 Z M 116,62.5 h 10 v 8.75 h 5 L 121,85 111,71.25 h 5 z"
         id="path3825-2"
         style="fill:#ffffff;fill-opacity:1;stroke:none" /></clipPath><filter
       color-interpolation-filters="sRGB"
       id="filter3806-9"
       x="-0.096000004"
       y="-0.096000004"
       width="1.192"
       height="1.192"><feGaussianBlur
         stdDeviation="1.2"
         id="feGaussianBlur3808-3" /></filter><filter
       color-interpolation-filters="sRGB"
       id="filter3174-1"
       x="-0.047720931"
       y="-0.047172415"
       width="1.0954419"
       height="1.0943448"><feGaussianBlur
         stdDeviation="1.71"
         id="feGaussianBlur3176-9" /></filter><linearGradient
       y2="7.0165396"
       x2="45.447727"
       y1="92.539597"
       x1="45.447727"
       gradientTransform="scale(1.0058652,0.994169)"
       gradientUnits="userSpaceOnUse"
       id="linearGradient1156"
       xlink:href="#ButtonShadow" /><filter
       style="color-interpolation-filters:sRGB"
       id="filter3831-2"
       x="-0.076499999"
       y="-0.067999999"
       width="1.153"
       height="1.136"><feGaussianBlur
         stdDeviation="0.6375"
         id="feGaussianBlur3833-0" /></filter><clipPath
       id="clipPath3823-2"><path
         style="fill:#ffffff;fill-opacity:1;stroke:none"
         id="path3825-3"
         d="M 108.8125,58 C 107.25437,58 106,59.254375 106,60.8125 v 24.375 C 106,86.745625 107.25437,88 108.8125,88 h 24.375 C 134.74562,88 136,86.745625 136,85.1875 V 60.8125 C 136,59.254375 134.74562,58 133.1875,58 Z M 116,62.5 h 10 v 8.75 h 5 L 121,85 111,71.25 h 5 z" /></clipPath><filter
       style="color-interpolation-filters:sRGB"
       id="filter3806-7"
       x="-0.096000004"
       y="-0.096000004"
       width="1.192"
       height="1.192"><feGaussianBlur
         stdDeviation="1.2"
         id="feGaussianBlur3808-5" /></filter><filter
       style="color-interpolation-filters:sRGB"
       id="filter3174-9"
       x="-0.047720931"
       y="-0.047172415"
       width="1.0954419"
       height="1.0943448"><feGaussianBlur
         stdDeviation="1.71"
         id="feGaussianBlur3176-2" /></filter><filter
       color-interpolation-filters="sRGB"
       id="filter3831-3-7"
       x="-0.076499999"
       y="-0.067999999"
       width="1.153"
       height="1.136"><feGaussianBlur
         stdDeviation="0.6375"
         id="feGaussianBlur3833-6-8" /></filter><clipPath
       id="clipPath3823-1-4"><path
         d="M 108.8125,58 C 107.25437,58 106,59.254375 106,60.8125 l 0,24.375 C 106,86.745625 107.25437,88 108.8125,88 l 24.375,0 C 134.74562,88 136,86.745625 136,85.1875 l 0,-24.375 C 136,59.254375 134.74562,58 133.1875,58 l -24.375,0 z m 7.1875,4.5 10,0 0,8.75 5,0 -10,13.75 -10,-13.75 5,0 0,-8.75 z"
         id="path3825-2-5"
         style="fill:#ffffff;fill-opacity:1;stroke:none" /></clipPath><filter
       color-interpolation-filters="sRGB"
       id="filter3806-9-0"
       x="-0.096000004"
       y="-0.096000004"
       width="1.192"
       height="1.192"><feGaussianBlur
         stdDeviation="1.2"
         id="feGaussianBlur3808-3-3" /></filter><filter
       color-interpolation-filters="sRGB"
       id="filter3174-1-6"
       x="-0.047720931"
       y="-0.047172415"
       width="1.0954419"
       height="1.0943448"><feGaussianBlur
         stdDeviation="1.71"
         id="feGaussianBlur3176-9-1" /></filter><linearGradient
       xlink:href="#ButtonShadow"
       id="linearGradient508"
       gradientUnits="userSpaceOnUse"
       gradientTransform="scale(1.0058652,0.994169)"
       x1="45.447727"
       y1="92.539597"
       x2="45.447727"
       y2="7.0165396" /><linearGradient
       xlink:href="#linearGradient3778"
       id="linearGradient510"
       gradientUnits="userSpaceOnUse"
       gradientTransform="matrix(0.9375,0,0,0.9375,-140.5,3.5)"
       x1="56"
       y1="72"
       x2="88"
       y2="72" /><linearGradient
       xlink:href="#linearGradient3737"
       id="linearGradient512"
       gradientUnits="userSpaceOnUse"
       gradientTransform="translate(0,4)"
       x1="70"
       y1="54"
       x2="70"
       y2="75.095024" /><linearGradient
       xlink:href="#linearGradient5010"
       id="linearGradient514"
       gradientUnits="userSpaceOnUse"
       gradientTransform="matrix(0.625,0,0,0.625,78.5,32.25)"
       x1="65.262688"
       y1="64.205269"
       x2="65.262688"
       y2="50.068527" /><linearGradient
       xlink:href="#linearGradient3737"
       id="linearGradient516"
       gradientUnits="userSpaceOnUse"
       gradientTransform="matrix(0.625,0,0,0.625,28.5,31.25)"
       x1="65.262688"
       y1="64.205269"
       x2="65.262688"
       y2="50.068527" /><linearGradient
       xlink:href="#ButtonShadow"
       id="linearGradient518"
       gradientUnits="userSpaceOnUse"
       gradientTransform="scale(1.0058652,0.994169)"
       x1="45.447727"
       y1="92.539597"
       x2="45.447727"
       y2="7.0165396" /><linearGradient
       xlink:href="#linearGradient3778"
       id="linearGradient520"
       gradientUnits="userSpaceOnUse"
       gradientTransform="matrix(0.9375,0,0,0.9375,-140.5,3.5)"
       x1="56"
       y1="72"
       x2="88"
       y2="72" /><linearGradient
       xlink:href="#linearGradient3737"
       id="linearGradient522"
       gradientUnits="userSpaceOnUse"
       gradientTransform="translate(0,4)"
       x1="70"
       y1="54"
       x2="70"
       y2="75.095024" /><linearGradient
       xlink:href="#linearGradient5010"
       id="linearGradient524"
       gradientUnits="userSpaceOnUse"
       gradientTransform="matrix(0.625,0,0,0.625,78.5,32.25)"
       x1="65.262688"
       y1="64.205269"
       x2="65.262688"
       y2="50.068527" /><linearGradient
       xlink:href="#linearGradient3737"
       id="linearGradient526"
       gradientUnits="userSpaceOnUse"
       gradientTransform="matrix(0.625,0,0,0.625,28.5,31.25)"
       x1="65.262688"
       y1="64.205269"
       x2="65.262688"
       y2="50.068527" /><linearGradient
       xlink:href="#ButtonShadow"
       id="linearGradient528"
       gradientUnits="userSpaceOnUse"
       gradientTransform="scale(1.0058652,0.994169)"
       x1="45.447727"
       y1="92.539597"
       x2="45.447727"
       y2="7.0165396" /><linearGradient
       xlink:href="#linearGradient3778"
       id="linearGradient530"
       gradientUnits="userSpaceOnUse"
       gradientTransform="matrix(0.9375,0,0,0.9375,-140.5,3.5)"
       x1="56"
       y1="72"
       x2="88"
       y2="72" /><linearGradient
       xlink:href="#linearGradient3737"
       id="linearGradient532"
       gradientUnits="userSpaceOnUse"
       gradientTransform="translate(0,4)"
       x1="70"
       y1="54"
       x2="70"
       y2="75.095024" /><linearGradient
       xlink:href="#linearGradient5010"
       id="linearGradient534"
       gradientUnits="userSpaceOnUse"
       gradientTransform="matrix(0.625,0,0,0.625,78.5,32.25)"
       x1="65.262688"
       y1="64.205269"
       x2="65.262688"
       y2="50.068527" /><linearGradient
       xlink:href="#linearGradient3737"
       id="linearGradient536"
       gradientUnits="userSpaceOnUse"
       gradientTransform="matrix(0.625,0,0,0.625,28.5,31.25)"
       x1="65.262688"
       y1="64.205269"
       x2="65.262688"
       y2="50.068527" /></defs><path
     id="rect855-3"
     style="fill:#555761;stroke:none;stroke-width:0.992;stroke-opacity:1;stop-color:#000000;font-variation-settings:normal;opacity:0.5;vector-effect:none;fill-opacity:1;stroke-linecap:square;stroke-linejoin:miter;stroke-miterlimit:4;stroke-dasharray:none;stroke-dashoffset:0;-inkscape-stroke:none;marker:none;stop-opacity:1"
     d="M 15 1 C 12.784006 1 11 2.7840066 11 5 L 11 11.623047 L 15.548828 16.171875 L 19.417969 5 L 22.587891 5 L 26.599609 16.601562 L 23.962891 16.601562 L 23.105469 14 L 18.900391 14 L 18.037109 16.601562 L 15.978516 16.601562 L 20.376953 21 L 27 21 C 29.215994 21 31 19.215994 31 17 L 31 5 C 31 2.7840066 29.215994 1 27 1 L 15 1 z M 20.957031 7.6230469 L 19.525391 12 L 22.480469 12 L 21.048828 7.6230469 L 20.957031 7.6230469 z M 5 11 C 2.784011 11 1 12.78401 1 15 L 1 27 C 1 29.21599 2.784011 31 5 31 L 17 31 C 19.21599 31 21 29.21599 21 27 L 21 24.451172 L 19.548828 23 L 19 23 L 19 27 C 19 28.107995 18.107995 29 17 29 L 5 29 C 3.8920055 29 3 28.107995 3 27 L 3 15 C 3 13.892005 3.8920055 13 5 13 L 9 13 L 9 12.451172 L 7.5488281 11 L 5 11 z M 8.7363281 14.349609 C 8.7523281 14.621609 8.719125 15.006547 8.703125 15.310547 L 8.6074219 16.173828 L 7.96875 16.173828 C 6.992754 16.173828 5.5834351 16.045219 5.0234375 15.949219 L 5.0722656 17.804688 C 5.8242628 17.836684 7.0723001 17.902344 7.9042969 17.902344 L 8.4160156 17.902344 C 8.352016 18.55834 8.303484 19.229969 8.2714844 19.917969 C 6.0314932 20.973965 4.3359375 23.117649 4.3359375 25.181641 C 4.3359375 26.797633 5.3280982 27.501953 6.4960938 27.501953 C 7.3440902 27.501953 8.1925657 27.245328 8.9765625 26.861328 L 9.1835938 27.517578 L 11.023438 26.957031 C 10.895438 26.573035 10.76825 26.173434 10.65625 25.773438 C 11.511213 25.064717 12.395263 24.018768 13.146484 22.707031 C 12.582991 22.525151 12.056145 22.2635 11.580078 21.933594 C 11.167725 22.612169 10.703513 23.181254 10.207031 23.677734 C 10.095031 22.877738 10.03125 22.013105 10.03125 21.037109 L 10.03125 20.990234 C 10.156597 20.951666 10.289378 20.916956 10.423828 20.882812 C 9.5367781 19.837391 9 18.484711 9 17 L 9 14.355469 L 8.7363281 14.349609 z M 11 14.451172 L 11 17 C 11 19.215994 12.784006 21 15 21 L 17.548828 21 L 11 14.451172 z M 8.2246094 21.822266 C 8.256609 22.926262 8.3845477 24.029488 8.5605469 25.021484 C 7.9845493 25.357484 7.4089359 25.548828 6.9609375 25.548828 C 6.4489395 25.548828 6.2246094 25.277621 6.2246094 24.765625 C 6.2246094 23.853629 7.0246142 22.638262 8.2246094 21.822266 z M 15.667969 23 C 15.671137 23.050393 15.679687 23.099319 15.679688 23.150391 C 15.679688 24.718383 14.431738 26.285094 11.34375 26.621094 L 12.400391 28.300781 C 16.336375 27.708785 17.664063 25.518082 17.664062 23.246094 C 17.664062 23.163049 17.659175 23.081403 17.654297 23 L 15.667969 23 z " /><rect
     style="color:#000000;font-variation-settings:normal;display:inline;overflow:visible;visibility:visible;vector-effect:none;fill:none;fill-opacity:1;fill-rule:nonzero;stroke:none;stroke-width:0.285692;stroke-linecap:butt;stroke-linejoin:round;stroke-miterlimit:4;stroke-dasharray:none;stroke-dashoffset:0;stroke-opacity:1;-inkscape-stroke:none;marker:none;enable-background:accumulate;stop-color:#000000"
     id="rect5505-21-1-5-6"
     y="10.714286"
     x="1.285714"
     ry="7.75"
     rx="7.75"
     height="20.285715"
     width="20.285715" /><g
     id="g4"
     transform="translate(-872,-552)"
     color="#000000" /><g
     style="display:none"
     id="layer2"
     transform="translate(-270.91626,-84.668909)"><path
       style="opacity:0.9;fill:url(#linearGradient508);fill-opacity:1;fill-rule:nonzero;stroke:none;filter:url(#filter3174)"
       id="rect3745"
       d="M 11,7 48,5 85,7 c 3.324,0 6,2.676 6,6 v 73 c 0,3.324 -2.676,6 -6,6 H 11 C 7.676,92 5,89.324 5,86 V 13 C 5,9.676 7.676,7 11,7 Z" /></g><g
     style="display:none"
     id="layer4"
     transform="translate(-270.91626,-84.668909)"><rect
       style="opacity:0.6;fill:#000000;fill-opacity:1;stroke:none;filter:url(#filter3806)"
       id="rect3790"
       transform="rotate(-90,2,2)"
       y="56"
       x="-86"
       ry="2.8125"
       rx="2.8125"
       height="30"
       width="30" /><rect
       style="fill:url(#linearGradient510);fill-opacity:1;stroke:none"
       id="rect2993"
       transform="rotate(-90)"
       y="56"
       x="-88"
       ry="2.8125"
       rx="2.8125"
       height="30"
       width="30" /><path
       style="opacity:0.5;fill:url(#linearGradient512);fill-opacity:1;stroke:none"
       id="rect3775"
       d="M 58.8125,58 C 57.254375,58 56,59.254375 56,60.8125 v 24.375 c 0,0.873066 0.410816,1.641163 1.03125,2.15625 C 57.02841,87.289908 57,87.242129 57,87.1875 V 62.8125 C 57,61.254375 58.17075,60 59.625,60 h 22.75 C 83.82925,60 85,61.254375 85,62.8125 v 24.375 c 0,0.05463 -0.02841,0.102408 -0.03125,0.15625 C 85.589184,86.828663 86,86.060566 86,85.1875 V 60.8125 C 86,59.254375 84.745625,58 83.1875,58 Z" /><path
       style="display:inline;opacity:0.6;fill:url(#linearGradient514);fill-opacity:1;fill-rule:nonzero;stroke:none;filter:url(#filter3831)"
       id="path3810"
       clip-path="url(#clipPath3823)"
       transform="translate(-50)"
       d="m 116,63.5 v 8.75 h -5 L 121,86 131,72.25 h -5 V 63.5 Z" /><path
       style="display:inline;fill:url(#linearGradient516);fill-opacity:1;fill-rule:nonzero;stroke:none"
       id="path4278"
       d="m 66,62.5 v 8.75 H 61 L 71,85 81,71.25 H 76 V 62.5 Z" /></g><g
     style="display:none"
     id="layer2-6"
     transform="translate(-205.02174,-92.238105)"><path
       style="opacity:0.9;fill:url(#linearGradient518);fill-opacity:1;fill-rule:nonzero;stroke:none;filter:url(#filter3174-1)"
       id="rect3745-1"
       d="M 11,7 48,5 85,7 c 3.324,0 6,2.676 6,6 v 73 c 0,3.324 -2.676,6 -6,6 H 11 C 7.676,92 5,89.324 5,86 V 13 C 5,9.676 7.676,7 11,7 Z" /></g><g
     style="display:none"
     id="layer4-5"
     transform="translate(-205.02174,-92.238105)"><rect
       style="opacity:0.6;fill:#000000;fill-opacity:1;stroke:none;filter:url(#filter3806-9)"
       id="rect3790-5"
       transform="rotate(-90,2,2)"
       y="56"
       x="-86"
       ry="2.8125"
       rx="2.8125"
       height="30"
       width="30" /><rect
       style="fill:url(#linearGradient520);fill-opacity:1;stroke:none"
       id="rect2993-4"
       transform="rotate(-90)"
       y="56"
       x="-88"
       ry="2.8125"
       rx="2.8125"
       height="30"
       width="30" /><path
       style="opacity:0.5;fill:url(#linearGradient522);fill-opacity:1;stroke:none"
       id="rect3775-7"
       d="M 58.8125,58 C 57.254375,58 56,59.254375 56,60.8125 v 24.375 c 0,0.873066 0.410816,1.641163 1.03125,2.15625 C 57.02841,87.289908 57,87.242129 57,87.1875 V 62.8125 C 57,61.254375 58.17075,60 59.625,60 h 22.75 C 83.82925,60 85,61.254375 85,62.8125 v 24.375 c 0,0.05463 -0.02841,0.102408 -0.03125,0.15625 C 85.589184,86.828663 86,86.060566 86,85.1875 V 60.8125 C 86,59.254375 84.745625,58 83.1875,58 Z" /><path
       style="display:inline;opacity:0.6;fill:url(#linearGradient524);fill-opacity:1;fill-rule:nonzero;stroke:none;filter:url(#filter3831-3)"
       id="path3810-6"
       clip-path="url(#clipPath3823-1)"
       transform="translate(-50)"
       d="m 116,63.5 v 8.75 h -5 L 121,86 131,72.25 h -5 V 63.5 Z" /><path
       style="display:inline;fill:url(#linearGradient526);fill-opacity:1;fill-rule:nonzero;stroke:none"
       id="path4278-5"
       d="m 66,62.5 v 8.75 H 61 L 71,85 81,71.25 H 76 V 62.5 Z" /></g><g
     style="display:none"
     id="layer2-4"
     transform="translate(-385.15018,-160.96896)"><path
       style="opacity:0.9;fill:url(#linearGradient528);fill-opacity:1;fill-rule:nonzero;stroke:none;filter:url(#filter3174-9)"
       id="rect3745-7"
       d="M 11,7 48,5 85,7 c 3.324,0 6,2.676 6,6 v 73 c 0,3.324 -2.676,6 -6,6 H 11 C 7.676,92 5,89.324 5,86 V 13 C 5,9.676 7.676,7 11,7 Z" /></g><g
     style="display:none"
     id="layer4-6"
     transform="translate(-385.15018,-160.96896)"><rect
       style="opacity:0.6;fill:#000000;fill-opacity:1;stroke:none;filter:url(#filter3806-7)"
       id="rect3790-56"
       transform="rotate(-90,2,2)"
       y="56"
       x="-86"
       ry="2.8125"
       rx="2.8125"
       height="30"
       width="30" /><rect
       style="fill:url(#linearGradient530);fill-opacity:1;stroke:none"
       id="rect2993-9"
       transform="rotate(-90)"
       y="56"
       x="-88"
       ry="2.8125"
       rx="2.8125"
       height="30"
       width="30" /><path
       style="opacity:0.5;fill:url(#linearGradient532);fill-opacity:1;stroke:none"
       id="rect3775-3"
       d="M 58.8125,58 C 57.254375,58 56,59.254375 56,60.8125 v 24.375 c 0,0.873066 0.410816,1.641163 1.03125,2.15625 C 57.02841,87.289908 57,87.242129 57,87.1875 V 62.8125 C 57,61.254375 58.17075,60 59.625,60 h 22.75 C 83.82925,60 85,61.254375 85,62.8125 v 24.375 c 0,0.05463 -0.02841,0.102408 -0.03125,0.15625 C 85.589184,86.828663 86,86.060566 86,85.1875 V 60.8125 C 86,59.254375 84.745625,58 83.1875,58 Z" /><path
       style="display:inline;opacity:0.6;fill:url(#linearGradient534);fill-opacity:1;fill-rule:nonzero;stroke:none;filter:url(#filter3831-2)"
       id="path3810-7"
       clip-path="url(#clipPath3823-2)"
       transform="translate(-50)"
       d="m 116,63.5 v 8.75 h -5 L 121,86 131,72.25 h -5 V 63.5 Z" /><path
       style="display:inline;fill:url(#linearGradient536);fill-opacity:1;fill-rule:nonzero;stroke:none"
       id="path4278-4"
       d="m 66,62.5 v 8.75 H 61 L 71,85 81,71.25 H 76 V 62.5 Z" /></g><g
     style="display:none"
     id="layer2-6-5"
     transform="translate(-319.25566,-168.53816)"><path
       style="opacity:0.9;fill:url(#linearGradient1156);fill-opacity:1;fill-rule:nonzero;stroke:none;filter:url(#filter3174-1-6)"
       id="rect3745-1-2"
       d="M 11,7 48,5 85,7 c 3.324,0 6,2.676 6,6 v 73 c 0,3.324 -2.676,6 -6,6 H 11 C 7.676,92 5,89.324 5,86 V 13 C 5,9.676 7.676,7 11,7 Z" /></g><g
     style="display:none"
     id="layer4-5-5"
     transform="translate(-319.25566,-168.53816)"><rect
       style="opacity:0.6;fill:#000000;fill-opacity:1;stroke:none;filter:url(#filter3806-9-0)"
       id="rect3790-5-4"
       transform="rotate(-90,2,2)"
       y="56"
       x="-86"
       ry="2.8125"
       rx="2.8125"
       height="30"
       width="30" /><rect
       style="fill:url(#linearGradient3773);fill-opacity:1;stroke:none"
       id="rect2993-4-7"
       transform="rotate(-90)"
       y="56"
       x="-88"
       ry="2.8125"
       rx="2.8125"
       height="30"
       width="30" /><path
       style="opacity:0.5;fill:url(#linearGradient3788);fill-opacity:1;stroke:none"
       id="rect3775-7-4"
       d="M 58.8125,58 C 57.254375,58 56,59.254375 56,60.8125 v 24.375 c 0,0.873066 0.410816,1.641163 1.03125,2.15625 C 57.02841,87.289908 57,87.242129 57,87.1875 V 62.8125 C 57,61.254375 58.17075,60 59.625,60 h 22.75 C 83.82925,60 85,61.254375 85,62.8125 v 24.375 c 0,0.05463 -0.02841,0.102408 -0.03125,0.15625 C 85.589184,86.828663 86,86.060566 86,85.1875 V 60.8125 C 86,59.254375 84.745625,58 83.1875,58 Z" /><path
       style="display:inline;opacity:0.6;fill:url(#linearGradient3812);fill-opacity:1;fill-rule:nonzero;stroke:none;filter:url(#filter3831-3-7)"
       id="path3810-6-4"
       clip-path="url(#clipPath3823-1-4)"
       transform="translate(-50)"
       d="m 116,63.5 v 8.75 h -5 L 121,86 131,72.25 h -5 V 63.5 Z" /><path
       style="display:inline;fill:url(#linearGradient3832);fill-opacity:1;fill-rule:nonzero;stroke:none"
       id="path4278-5-3"
       d="m 66,62.5 v 8.75 H 61 L 71,85 81,71.25 H 76 V 62.5 Z" /></g><path
     id="path2"
     d="M 5.039062,3.625 C 4.843194,3.429131 4.5279,3.429131 4.332031,3.625 L 3.625,4.332031 C 3.429131,4.5279 3.429131,4.843194 3.625,5.039062 L 26.960938,28.375 c 0.195868,0.195869 0.511162,0.195869 0.707031,0 L 28.375,27.667969 c 0.195869,-0.195869 0.195869,-0.511163 0,-0.707031 z"
     style="font-variation-settings:normal;vector-effect:none;fill:#555761;fill-opacity:1;stroke:none;stroke-width:0.992;stroke-linecap:square;stroke-linejoin:miter;stroke-miterlimit:4;stroke-dasharray:none;stroke-dashoffset:0;stroke-opacity:1;-inkscape-stroke:none;marker:none;stop-color:#000000" /></svg>
