<?xml version="1.0" encoding="UTF-8" standalone="no"?>
<svg
   id="svg6"
   version="1.1"
   width="32"
   height="32"
   xmlns="http://www.w3.org/2000/svg"
   xmlns:svg="http://www.w3.org/2000/svg"
   xmlns:rdf="http://www.w3.org/1999/02/22-rdf-syntax-ns#"
   xmlns:cc="http://creativecommons.org/ns#"
   xmlns:dc="http://purl.org/dc/elements/1.1/">
  <metadata
     id="metadata12">
    <rdf:RDF>
      <cc:Work
         rdf:about="">
        <dc:format>image/svg+xml</dc:format>
        <dc:type
           rdf:resource="http://purl.org/dc/dcmitype/StillImage" />
      </cc:Work>
    </rdf:RDF>
  </metadata>
  <defs
     id="defs10" />
  <g
     id="g4"
     transform="translate(-872,-552)"
     color="#000000" />
  <path
     id="path10"
     d="m 10,0.0625 c -2.209139,0 -4,1.790861 -4,4 0.00226,1.8326624 1.2496866,3.4293634 3.0273438,3.875 H 8 6 c -1.108,0 -2,0.892 -2,2 v 2 h 2 8 4 8 2 v -2 c 0,-1.108 -0.892,-2 -2,-2 H 24 22.980468 C 24.755024,7.4888398 25.998638,5.8928938 26,4.0625 c 0,-2.209139 -1.790862,-4 -4,-4 -2.209139,0 -4,1.790861 -4,4 0.0023,1.8326626 1.249686,3.4293636 3.027344,3.875 H 20 18 c -1.108,0 -2,0.892 -2,2 0,-1.108 -0.892,-2 -2,-2 H 12 10.980469 C 12.755024,7.4888394 13.998639,5.8928936 14,4.0625 c 0,-2.209139 -1.790861,-4 -4,-4 z m -4,23.875 v 6 c 0,1.108 0.892,2 2,2 h 4 c 1.108,0 2,-0.892 2,-2 v -6 z m 12,0 v 6 c 0,1.108 0.892,2 2,2 h 4 c 1.108,0 2,-0.892 2,-2 v -6 z"
     style="opacity:0.75;fill:#666666;fill-opacity:1;stroke:none;stroke-width:6.66666;stroke-opacity:1" />
  <rect
     y="13.9375"
     x="2"
     height="8"
     width="28"
     id="rect3758"
     style="fill:#666666;fill-opacity:1;stroke:none;stroke-width:10;stroke-opacity:1" />
</svg>
