<?xml version="1.0" encoding="UTF-8" standalone="no"?>
<svg
   id="svg6"
   version="1.1"
   width="32"
   height="32"
   xmlns="http://www.w3.org/2000/svg"
   xmlns:svg="http://www.w3.org/2000/svg"
   xmlns:rdf="http://www.w3.org/1999/02/22-rdf-syntax-ns#"
   xmlns:cc="http://creativecommons.org/ns#"
   xmlns:dc="http://purl.org/dc/elements/1.1/">
  <metadata
     id="metadata12">
    <rdf:RDF>
      <cc:Work
         rdf:about="">
        <dc:format>image/svg+xml</dc:format>
        <dc:type
           rdf:resource="http://purl.org/dc/dcmitype/StillImage" />
      </cc:Work>
    </rdf:RDF>
  </metadata>
  <defs
     id="defs10" />
  <path
     id="path2541-5"
     style="font-variation-settings:normal;opacity:1;vector-effect:none;fill:#555761;fill-opacity:1;stroke:none;stroke-width:4;stroke-linecap:round;stroke-linejoin:round;stroke-miterlimit:4;stroke-dasharray:none;stroke-dashoffset:0;stroke-opacity:1;-inkscape-stroke:none;stop-color:#000000;stop-opacity:1"
     d="M 5 1 C 2.784 1 1 2.8084335 1 5 L 1 31 L 3 31 L 3 27.861328 A 17.207636 10.634903 0 0 1 17.394531 23.042969 A 17.207636 10.634903 0 0 1 22.03125 23.445312 L 22.962891 24.376953 L 24.376953 22.962891 L 23.441406 22.027344 A 10.634903 17.207636 0 0 1 23.039062 17.394531 A 10.634903 17.207636 0 0 1 27.857422 3 L 31 3 L 31 1 L 5 1 z M 5 3 L 10.501953 3 C 9.4897086 4.2142986 8.8576275 5.7000621 8.6855469 7.2714844 L 4.4882812 3.0742188 C 4.6524902 3.0308879 4.8218055 3 5 3 z M 13.533203 3 L 17.990234 3 A 11.71614 13.653 0 0 0 14.832031 12.285156 A 11.71614 13.653 0 0 0 14.90625 13.492188 L 10.773438 9.359375 C 10.685825 8.9568926 10.638853 8.546661 10.634766 8.1347656 C 10.64257 6.0356886 11.740108 4.091329 13.533203 3 z M 20.8125 3 L 25.087891 3 A 11.870887 19.2075 0 0 0 21.039062 17.394531 A 11.870887 19.2075 0 0 0 21.128906 19.714844 L 17.328125 15.914062 A 10 11.653155 0 0 1 16.832031 12.285156 A 10 11.653155 0 0 1 20.8125 3 z M 3.0742188 4.4882812 L 7.2753906 8.6894531 C 5.7025453 8.860924 4.2152898 9.4927875 3 10.505859 L 3 5 C 3 4.8218055 3.0308879 4.6524902 3.0742188 4.4882812 z M 8.1347656 10.638672 C 8.5479372 10.642772 8.9596003 10.689202 9.3632812 10.777344 L 13.496094 14.910156 A 13.653 11.71614 0 0 0 12.285156 14.835938 A 13.653 11.71614 0 0 0 3 17.994141 L 3 13.537109 C 4.0913289 11.744014 6.0356882 10.646476 8.1347656 10.638672 z M 12.285156 16.835938 A 11.653155 10 0 0 1 15.919922 17.333984 L 19.71875 21.132812 A 19.2075 11.870887 0 0 0 17.394531 21.042969 A 19.2075 11.870887 0 0 0 3 25.091797 L 3 20.816406 A 11.653155 10 0 0 1 12.285156 16.835938 z " />
  <g
     id="g4"
     transform="translate(-872,-552)"
     color="#000000" />
</svg>
