<?xml version="1.0" encoding="UTF-8" standalone="no"?>
<svg
   id="svg6"
   version="1.1"
   width="32"
   height="32"
   xmlns="http://www.w3.org/2000/svg"
   xmlns:svg="http://www.w3.org/2000/svg"
   xmlns:rdf="http://www.w3.org/1999/02/22-rdf-syntax-ns#"
   xmlns:cc="http://creativecommons.org/ns#"
   xmlns:dc="http://purl.org/dc/elements/1.1/">
  <metadata
     id="metadata12">
    <rdf:RDF>
      <cc:Work
         rdf:about="">
        <dc:format>image/svg+xml</dc:format>
        <dc:type
           rdf:resource="http://purl.org/dc/dcmitype/StillImage" />
      </cc:Work>
    </rdf:RDF>
  </metadata>
  <defs
     id="defs10" />
  <g
     id="g4"
     transform="translate(-872,-552)"
     color="#000000" />
  <path
     id="rect876"
     style="opacity:0.5;fill:#555761;stroke-width:4;stroke-linecap:round;stroke-linejoin:round;-inkscape-stroke:none;stop-color:#000000"
     d="M 5 1 C 2.7840154 1 1 2.7840155 1 5 L 1 8.5605469 C 1.581495 8.0280027 2.2582818 7.6068926 2.9980469 7.3378906 C 2.9987982 7.0407563 3 5.6152344 3 5.6152344 L 3 5 C 3 3.8920044 3.8920044 3 5 3 L 7.3027344 3 L 10.013672 3 C 11.524471 3 12.54755 4.8522224 14.121094 5 L 25 5 L 26.28125 5 L 27 5 C 28.107997 5 29 5.8920033 29 7 L 29 7.3320312 L 29.003906 7.3359375 C 29.751572 7.6065515 30.405872 8.0272705 31 8.5585938 L 31 7 C 31 4.7840155 29.215986 3 27 3 L 15 3 C 12.974625 3 12.024416 1 10 1 L 5 1 z M 5 9 C 2.7840066 9 1 10.784006 1 13 L 1 27 C 1 29.215994 2.7840066 31 5 31 L 14.033203 31 C 13.950311 30.499523 13.977 29.982436 14.154297 29.482422 C 16.135322 25.515711 18.347913 21.663643 20.429688 17.753906 C 21.027097 16.280607 22.367751 14.906298 24.070312 15.009766 C 25.154815 15.032663 26.223983 15.585049 26.841797 16.482422 C 28.26044 18.992224 29.631095 21.530292 31 24.070312 L 31 13 C 31 10.784006 29.215994 9 27 9 L 5 9 z " />
  <path
     id="path829"
     style="color:#000000;font-weight:400;line-height:normal;font-family:sans-serif;font-variant-ligatures:normal;font-variant-position:normal;font-variant-caps:normal;font-variant-numeric:normal;font-variant-alternates:normal;font-feature-settings:normal;text-indent:0;text-align:start;text-decoration:none;text-decoration-line:none;text-decoration-style:solid;text-decoration-color:#000000;text-transform:none;text-orientation:mixed;white-space:normal;shape-padding:0;overflow:visible;isolation:auto;mix-blend-mode:normal;fill:#555761"
     d="m 23.962988,17.000505 a 1.499,1.499 0 0 0 -1.277344,0.785156 l -6.501953,12 c -0.542,0.999998 0.180408,2.216797 1.316406,2.216797 h 13 c 1.135998,0 1.858406,-1.215799 1.316406,-2.216797 l -6.498047,-12 a 1.496,1.496 0 0 0 -1.355468,-0.785156 z m 0.03906,4.001953 a 1,1 0 0 1 1,1 v 2.5 a 4.0615528,4.0615528 0 0 1 -0.121094,0.984375 l -0.257812,1.03125 a 0.6403882,0.6403882 0 0 1 -0.621094,0.484375 0.6403882,0.6403882 0 0 1 -0.621094,-0.484375 l -0.257812,-1.03125 a 4.0615528,4.0615528 0 0 1 -0.121094,-0.984375 v -2.5 a 1,1 0 0 1 1,-1 z m 0,7 a 1,1 0 0 1 0,2 1,1 0 0 1 0,-2 z" />
</svg>
