<?xml version="1.0" encoding="UTF-8" standalone="no"?>
<svg
   id="svg6"
   version="1.1"
   width="32"
   height="32"
   xmlns="http://www.w3.org/2000/svg"
   xmlns:svg="http://www.w3.org/2000/svg"
   xmlns:rdf="http://www.w3.org/1999/02/22-rdf-syntax-ns#"
   xmlns:cc="http://creativecommons.org/ns#"
   xmlns:dc="http://purl.org/dc/elements/1.1/">
  <metadata
     id="metadata12">
    <rdf:RDF>
      <cc:Work
         rdf:about="">
        <dc:format>image/svg+xml</dc:format>
        <dc:type
           rdf:resource="http://purl.org/dc/dcmitype/StillImage" />
      </cc:Work>
    </rdf:RDF>
  </metadata>
  <defs
     id="defs10" />
  <g
     id="g4"
     transform="translate(-872,-552)"
     color="#000000" />
  <path
     id="rect48996-8-9-6-9-9-3-10-1"
     style="font-variation-settings:normal;opacity:0.5;fill:#555761;fill-opacity:1;stroke:none;stroke-width:0.999994;stroke-linecap:round;stroke-linejoin:round;stroke-miterlimit:4;stroke-dasharray:none;stroke-dashoffset:0;stroke-opacity:0.5;stop-color:#000000"
     d="M 15.25 1 C 14.8345 1 14.5 2.3379928 14.5 4 L 14.5 4.1074219 A 11.999994 11.999994 0 0 0 12.833984 4.4394531 L 12.792969 4.3398438 C 12.156948 2.8043612 11.335042 1.6964798 10.951172 1.8554688 L 9.5664062 2.4277344 C 9.1825356 2.5867341 9.385475 3.9508457 10.021484 5.4863281 L 10.068359 5.6015625 A 11.999994 11.999994 0 0 0 8.6621094 6.5410156 L 8.5742188 6.453125 C 7.3989999 5.2779099 6.2176348 4.5694747 5.9238281 4.8632812 L 4.8632812 5.9238281 C 4.5694855 6.2176346 5.2779102 7.399014 6.453125 8.5742188 L 6.5410156 8.6621094 A 11.999994 11.999994 0 0 0 5.6015625 10.068359 L 5.4863281 10.021484 C 3.9508357 9.3854641 2.5867442 9.1825256 2.4277344 9.5664062 L 1.8554688 10.951172 C 1.6964689 11.335042 2.8043613 12.156949 4.3398438 12.792969 L 4.4394531 12.833984 A 11.999994 11.999994 0 0 0 4.1074219 14.5 L 4 14.5 C 2.3380037 14.5 1 14.8345 1 15.25 L 1 16.75 C 1 17.1655 2.3380037 17.5 4 17.5 L 4.1074219 17.5 A 11.999994 11.999994 0 0 0 4.4394531 19.166016 L 4.3398438 19.207031 C 2.8043723 19.843052 1.6964689 20.664958 1.8554688 21.048828 L 2.4277344 22.433594 C 2.5867342 22.817475 3.9508567 22.614536 5.4863281 21.978516 L 5.6015625 21.931641 A 11.999994 11.999994 0 0 0 6.5410156 23.337891 L 6.453125 23.425781 C 5.2779202 24.600996 4.5694855 25.782376 4.8632812 26.076172 L 5.9238281 27.136719 C 6.2176338 27.430525 7.3990029 26.72208 8.5742188 25.546875 L 8.6621094 25.458984 A 11.999994 11.999994 0 0 0 10.068359 26.398438 L 10.021484 26.513672 C 9.385464 28.049154 9.1825456 29.413255 9.5664062 29.572266 L 10.951172 30.144531 C 11.335053 30.30353 12.156949 29.195629 12.792969 27.660156 L 12.833984 27.560547 A 11.999994 11.999994 0 0 0 14.5 27.892578 L 14.5 28 C 14.5 28.260252 14.511913 28.507578 14.527344 28.748047 C 15.038245 27.742437 15.563652 26.743013 16.095703 25.748047 A 9.7552815 9.7552815 0 0 1 16 25.755859 A 9.7552815 9.7552815 0 0 1 8 21.519531 L 13.875 18.126953 A 3.0143695 3.0143695 0 0 0 16 19.013672 A 3.0143695 3.0143695 0 0 0 18.125 18.126953 L 19.728516 19.052734 C 19.962397 18.619832 20.19855 18.188001 20.429688 17.753906 C 20.432616 17.746683 20.436489 17.73964 20.439453 17.732422 L 18.894531 16.839844 A 3.0143695 3.0143695 0 0 0 19.013672 16 A 3.0143695 3.0143695 0 0 0 16.75 13.080078 L 16.75 6.2773438 A 9.7552815 9.7552815 0 0 1 25.710938 15.466797 C 26.15654 15.717052 26.550746 16.059671 26.841797 16.482422 C 27.153342 17.033594 27.458192 17.588903 27.765625 18.142578 A 11.999994 11.999994 0 0 0 27.892578 17.5 L 28 17.5 C 29.661996 17.5 31 17.1655 31 16.75 L 31 15.25 C 31 14.8345 29.661996 14.5 28 14.5 L 27.902344 14.5 A 11.999994 11.999994 0 0 0 27.568359 12.832031 L 27.660156 12.792969 C 29.195629 12.156948 30.303521 11.335042 30.144531 10.951172 L 29.572266 9.5664062 C 29.413266 9.1825356 28.049144 9.3854641 26.513672 10.021484 L 26.423828 10.058594 A 11.999994 11.999994 0 0 0 25.478516 8.6445312 L 25.546875 8.5742188 C 26.72208 7.399014 27.430524 6.2176346 27.136719 5.9238281 L 26.076172 4.8632812 C 25.782366 4.5694747 24.600996 5.2779204 23.425781 6.453125 L 23.355469 6.5234375 A 11.999994 11.999994 0 0 0 21.941406 5.5761719 L 21.978516 5.4863281 C 22.614536 3.9508457 22.817464 2.586734 22.433594 2.4277344 L 21.048828 1.8554688 C 20.664958 1.696469 19.843052 2.804372 19.207031 4.3398438 L 19.167969 4.4316406 A 11.999994 11.999994 0 0 0 17.5 4.0976562 L 17.5 4 C 17.5 2.3380035 17.165499 1 16.75 1 L 15.25 1 z M 15.25 6.3105469 L 15.25 13.085938 A 3.0143695 3.0143695 0 0 0 12.984375 16 A 3.0143695 3.0143695 0 0 0 13.105469 16.839844 L 7.2460938 20.222656 A 9.7552815 9.7552815 0 0 1 6.2441406 16 A 9.7552815 9.7552815 0 0 1 15.25 6.3105469 z M 16 14.5 A 1.4999993 1.4999993 0 0 1 17.5 16 A 1.4999993 1.4999993 0 0 1 16 17.5 A 1.4999993 1.4999993 0 0 1 14.5 16 A 1.4999993 1.4999993 0 0 1 16 14.5 z M 28.601562 19.648438 C 29.005949 20.385983 29.405984 21.125424 29.806641 21.865234 L 30.144531 21.048828 C 30.26842 20.749726 29.618932 20.184142 28.601562 19.648438 z " />
  <path
     id="path829"
     style="color:#000000;font-weight:400;line-height:normal;font-family:sans-serif;font-variant-ligatures:normal;font-variant-position:normal;font-variant-caps:normal;font-variant-numeric:normal;font-variant-alternates:normal;font-feature-settings:normal;text-indent:0;text-align:start;text-decoration:none;text-decoration-line:none;text-decoration-style:solid;text-decoration-color:#000000;text-transform:none;text-orientation:mixed;white-space:normal;shape-padding:0;overflow:visible;isolation:auto;mix-blend-mode:normal;fill:#555761"
     d="m 23.962988,17.000505 a 1.499,1.499 0 0 0 -1.277344,0.785156 l -6.501953,12 c -0.542,0.999998 0.180408,2.216797 1.316406,2.216797 h 13 c 1.135998,0 1.858406,-1.215799 1.316406,-2.216797 l -6.498047,-12 a 1.496,1.496 0 0 0 -1.355468,-0.785156 z m 0.03906,4.001953 a 1,1 0 0 1 1,1 v 2.5 a 4.0615528,4.0615528 0 0 1 -0.121094,0.984375 l -0.257812,1.03125 a 0.6403882,0.6403882 0 0 1 -0.621094,0.484375 0.6403882,0.6403882 0 0 1 -0.621094,-0.484375 l -0.257812,-1.03125 a 4.0615528,4.0615528 0 0 1 -0.121094,-0.984375 v -2.5 a 1,1 0 0 1 1,-1 z m 0,7 a 1,1 0 0 1 0,2 1,1 0 0 1 0,-2 z" />
</svg>
