<?xml version="1.0" encoding="UTF-8" standalone="no"?>
<svg
   id="svg6"
   version="1.1"
   width="32"
   height="32"
   xmlns="http://www.w3.org/2000/svg"
   xmlns:svg="http://www.w3.org/2000/svg"
   xmlns:rdf="http://www.w3.org/1999/02/22-rdf-syntax-ns#"
   xmlns:cc="http://creativecommons.org/ns#"
   xmlns:dc="http://purl.org/dc/elements/1.1/">
  <metadata
     id="metadata12">
    <rdf:RDF>
      <cc:Work
         rdf:about="">
        <dc:format>image/svg+xml</dc:format>
        <dc:type
           rdf:resource="http://purl.org/dc/dcmitype/StillImage" />
      </cc:Work>
    </rdf:RDF>
  </metadata>
  <defs
     id="defs10" />
  <g
     id="g4"
     transform="translate(-872,-552)"
     color="#000000" />
  <path
     id="path9124"
     style="font-variation-settings:normal;opacity:0.5;mix-blend-mode:normal;vector-effect:none;fill:#555761;fill-opacity:1;stroke:none;stroke-width:4;stroke-linecap:round;stroke-linejoin:round;stroke-miterlimit:4;stroke-dasharray:none;stroke-dashoffset:0;stroke-opacity:1;-inkscape-stroke:none;stop-color:#000000;stop-opacity:1"
     d="M 16 0.47851562 C 15.281269 0.47851562 14.561149 0.66268852 13.916016 1.0351562 L 4.0839844 6.7148438 C 2.7937177 7.4597819 2 8.8323936 2 10.322266 L 2 21.677734 C 2 23.167609 2.7937177 24.538268 4.0839844 25.283203 L 13.158203 30.525391 C 12.940069 29.871535 12.912189 29.159707 13.152344 28.482422 C 13.343527 28.099605 13.539193 27.718722 13.734375 27.337891 L 5.6074219 22.644531 C 5.2636621 22.446062 5.0488281 22.074674 5.0488281 21.677734 L 5.0488281 10.322266 C 5.0488281 10.123799 5.1026889 9.9308812 5.1992188 9.7636719 L 16 16 L 16 3.5292969 C 16.193076 3.5292969 16.386712 3.5785095 16.558594 3.6777344 L 26.392578 9.3554688 C 26.564459 9.4546997 26.704242 9.5964644 26.800781 9.7636719 L 16 16 L 16 23.068359 C 17.144212 20.962423 18.304863 18.866414 19.429688 16.753906 C 20.027097 15.280607 21.367751 13.906298 23.070312 14.009766 C 24.154815 14.032662 25.22203 14.585049 25.839844 15.482422 C 27.206154 17.899638 28.52904 20.342865 29.847656 22.789062 C 29.946451 22.432027 30 22.058716 30 21.677734 L 30 10.322266 C 30 8.8323936 29.206283 7.4597819 27.916016 6.7148438 L 18.083984 1.0351562 C 17.438851 0.66268852 16.718731 0.47851562 16 0.47851562 z " />
  <path
     id="path829"
     style="color:#000000;font-weight:400;line-height:normal;font-family:sans-serif;font-variant-ligatures:normal;font-variant-position:normal;font-variant-caps:normal;font-variant-numeric:normal;font-variant-alternates:normal;font-feature-settings:normal;text-indent:0;text-align:start;text-decoration:none;text-decoration-line:none;text-decoration-style:solid;text-decoration-color:#000000;text-transform:none;text-orientation:mixed;white-space:normal;shape-padding:0;overflow:visible;isolation:auto;mix-blend-mode:normal;fill:#555761"
     d="M 22.962891 16 A 1.499 1.499 0 0 0 21.685547 16.785156 L 15.183594 28.785156 C 14.641594 29.785154 15.364002 31.001953 16.5 31.001953 L 29.5 31.001953 C 30.635998 31.001953 31.358406 29.786154 30.816406 28.785156 L 24.318359 16.785156 A 1.496 1.496 0 0 0 22.962891 16 z M 23.001953 20.001953 A 1 1 0 0 1 24.001953 21.001953 L 24.001953 23.501953 A 4.0615528 4.0615528 0 0 1 23.880859 24.486328 L 23.623047 25.517578 A 0.6403882 0.6403882 0 0 1 23.001953 26.001953 A 0.6403882 0.6403882 0 0 1 22.380859 25.517578 L 22.123047 24.486328 A 4.0615528 4.0615528 0 0 1 22.001953 23.501953 L 22.001953 21.001953 A 1 1 0 0 1 23.001953 20.001953 z M 23.001953 27.001953 A 1 1 0 0 1 23.001953 29.001953 A 1 1 0 0 1 23.001953 27.001953 z " />
</svg>
