<?xml version="1.0" encoding="UTF-8" standalone="no"?>
<svg
   id="svg6"
   version="1.1"
   width="32"
   height="32"
   xmlns="http://www.w3.org/2000/svg"
   xmlns:svg="http://www.w3.org/2000/svg"
   xmlns:rdf="http://www.w3.org/1999/02/22-rdf-syntax-ns#"
   xmlns:cc="http://creativecommons.org/ns#"
   xmlns:dc="http://purl.org/dc/elements/1.1/">
  <metadata
     id="metadata12">
    <rdf:RDF>
      <cc:Work
         rdf:about="">
        <dc:format>image/svg+xml</dc:format>
        <dc:type
           rdf:resource="http://purl.org/dc/dcmitype/StillImage" />
      </cc:Work>
    </rdf:RDF>
  </metadata>
  <defs
     id="defs10" />
  <g
     id="g4"
     transform="translate(-872,-552)"
     color="#000000" />
  <path
     id="rect876"
     style="opacity:1;fill:#555761;stroke-width:4;stroke-linecap:round;stroke-linejoin:round;-inkscape-stroke:none;stop-color:#000000"
     d="M 5 1 C 2.784011 1 1 2.7840111 1 5 L 1 8.5605469 C 1.5814962 8.0280017 2.2582804 7.606893 2.9980469 7.3378906 C 2.9987982 7.0407557 3 5.6152344 3 5.6152344 L 3 5 C 3 3.8920022 3.8920022 3 5 3 L 7.3027344 3 L 10.013672 3 C 11.524475 3 12.547548 4.8522222 14.121094 5 L 25 5 L 26.28125 5 L 27 5 C 28.107999 5 29 5.8920011 29 7 L 29 7.3320312 L 29.003906 7.3359375 C 29.751566 7.6065558 30.40587 8.0272695 31 8.5585938 L 31 7 C 31 4.7840111 29.21599 3 27 3 L 15 3 C 12.974621 3 12.02442 1 10 1 L 5 1 z " />
  <rect
     style="fill:#555761;stroke-width:4;stroke-linecap:round;stroke-linejoin:round;-inkscape-stroke:none;stop-color:#000000"
     id="rect876-3"
     width="30"
     height="22"
     x="1"
     y="9"
     rx="4"
     ry="3.9999998" />
</svg>
