<?xml version="1.0" encoding="UTF-8" standalone="no"?>
<svg
   id="svg6"
   version="1.1"
   width="32"
   height="32"
   xmlns="http://www.w3.org/2000/svg"
   xmlns:svg="http://www.w3.org/2000/svg"
   xmlns:rdf="http://www.w3.org/1999/02/22-rdf-syntax-ns#"
   xmlns:cc="http://creativecommons.org/ns#"
   xmlns:dc="http://purl.org/dc/elements/1.1/">
  <metadata
     id="metadata12">
    <rdf:RDF>
      <cc:Work
         rdf:about="">
        <dc:format>image/svg+xml</dc:format>
        <dc:type
           rdf:resource="http://purl.org/dc/dcmitype/StillImage" />
      </cc:Work>
    </rdf:RDF>
  </metadata>
  <defs
     id="defs10" />
  <g
     id="g4"
     transform="translate(-872,-552)"
     color="#000000" />
  <path
     id="path5-4"
     style="font-variation-settings:normal;opacity:0.5;vector-effect:none;fill:#555761;fill-opacity:1;stroke:none;stroke-width:4.00001;stroke-linecap:round;stroke-linejoin:round;stroke-miterlimit:4;stroke-dasharray:none;stroke-dashoffset:0;stroke-opacity:1;-inkscape-stroke:none;marker:none;stop-color:#000000"
     d="M 17.55859,0 C 16.69616,0 16,0.668642 16,1.5 V 4 c -5.66223,3.15e-4 -10.76681,3.411337 -12.93359,8.642578 -2.16768,5.231316 -0.97052,11.253349 3.0332,15.257813 2.26119,2.260769 5.16486,3.625578 8.20703,3.996093 -0.3457,-0.749167 -0.43884,-1.606073 -0.15234,-2.414062 0.25711,-0.514838 0.5171,-1.027719 0.78125,-1.539063 C 9.91373,27.411403 6,23.162865 6,18 6,12.47717 10.47717,8 16,8 V 7.9922 c 0.25827,0.0019 0.51291,0.0025 0.75391,-0.01563 1.06847,-0.0664 2.03887,0.710215 2.35742,1.705078 -10e-4,0.844033 0.47341,0.200843 0.95508,0.08594 0.38458,-0.162431 0.76017,-0.185024 1.11914,-0.113281 L 24.57422,7.121102 C 24.83744,6.852335 25,6.488625 25,6.089844 25,5.691061 24.83745,5.331258 24.57422,5.0625 L 18.72266,0.503906 C 18.43789,0.194488 18.02341,0 17.55859,0 Z M 15,10 c -0.1969,0 -0.36577,0.856927 -0.49414,2.193359 a 6,6 0 0 0 -1.55078,0.644532 c -1.03701,-0.855533 -1.76494,-1.34053 -1.9043,-1.201172 l -1.41406,1.414062 c -0.1393,0.139299 0.34632,0.866039 1.20117,1.902344 a 6,6 0 0 0 -0.64062,1.552734 C 8.85833,16.634277 8,16.802887 8,17 v 2 c 0,0.196904 0.85693,0.365766 2.19336,0.494141 a 6,6 0 0 0 0.64453,1.550781 c -0.85553,1.037013 -1.34053,1.76494 -1.20117,1.904297 l 1.41406,1.414062 c 0.1393,0.139299 0.86604,-0.346323 1.90235,-1.201172 a 6,6 0 0 0 1.55273,0.640625 C 14.63428,25.141669 14.80289,26 15,26 h 0.96094 c 1.47117,-2.759919 3.00079,-5.489153 4.46875,-8.246094 0.2646,-0.652554 0.67613,-1.285387 1.19922,-1.779297 a 6,6 0 0 0 -0.4668,-1.019531 c 0.85553,-1.037013 1.34053,-1.76494 1.20117,-1.904297 l -1.41406,-1.414062 c -0.1393,-0.139299 -0.86604,0.346323 -1.90235,1.201172 A 6,6 0 0 0 17.49414,12.197266 C 17.36572,10.858331 17.19711,10 17,10 Z m 1,4.75 A 3.25,3.25 0 0 1 19.25,18 3.25,3.25 0 0 1 16,21.25 3.25,3.25 0 0 1 12.75,18 3.25,3.25 0 0 1 16,14.75 Z M 27.68555,18 c 0.63288,1.13823 1.26144,2.278602 1.88281,3.423828 C 29.76729,20.635647 29.9059,19.826478 29.96484,19 30.00414,18.449199 29.55228,18 29,18 Z" />
  <path
     id="path829-7"
     style="color:#000000;font-weight:400;line-height:normal;font-family:sans-serif;font-variant-ligatures:normal;font-variant-position:normal;font-variant-caps:normal;font-variant-numeric:normal;font-variant-alternates:normal;font-feature-settings:normal;text-indent:0;text-align:start;text-decoration:none;text-decoration-line:none;text-decoration-style:solid;text-decoration-color:#000000;text-transform:none;text-orientation:mixed;white-space:normal;shape-padding:0;overflow:visible;isolation:auto;mix-blend-mode:normal;fill:#555761"
     d="m 23.96299,17.000505 a 1.499,1.499 0 0 0 -1.27735,0.785156 l -6.50195,12 c -0.542,0.999998 0.18041,2.216797 1.31641,2.216797 h 13 c 1.13599,0 1.8584,-1.215799 1.3164,-2.216797 l -6.49804,-12 a 1.496,1.496 0 0 0 -1.35547,-0.785156 z m 0.0391,4.001953 a 1,1 0 0 1 1,1 v 2.5 a 4.0615528,4.0615528 0 0 1 -0.1211,0.984375 l -0.25781,1.03125 a 0.6403882,0.6403882 0 0 1 -0.62109,0.484375 0.6403882,0.6403882 0 0 1 -0.6211,-0.484375 l -0.25781,-1.03125 a 4.0615528,4.0615528 0 0 1 -0.12109,-0.984375 v -2.5 a 1,1 0 0 1 1,-1 z m 0,7 a 1,1 0 0 1 0,2 1,1 0 0 1 0,-2 z" />
</svg>
