<?xml version="1.0" encoding="UTF-8" standalone="no"?>
<svg
   id="svg6"
   version="1.1"
   width="32"
   height="32"
   xmlns="http://www.w3.org/2000/svg"
   xmlns:svg="http://www.w3.org/2000/svg"
   xmlns:rdf="http://www.w3.org/1999/02/22-rdf-syntax-ns#"
   xmlns:cc="http://creativecommons.org/ns#"
   xmlns:dc="http://purl.org/dc/elements/1.1/">
  <metadata
     id="metadata12">
    <rdf:RDF>
      <cc:Work
         rdf:about="">
        <dc:format>image/svg+xml</dc:format>
        <dc:type
           rdf:resource="http://purl.org/dc/dcmitype/StillImage" />
      </cc:Work>
    </rdf:RDF>
  </metadata>
  <defs
     id="defs10" />
  <path
     id="path9124-6"
     style="mix-blend-mode:normal;fill:#555761;fill-opacity:1;stroke:none;stroke-width:4;stroke-linecap:round;stroke-linejoin:round;stroke-opacity:1;font-variation-settings:normal;opacity:0.5;vector-effect:none;stroke-miterlimit:4;stroke-dasharray:none;stroke-dashoffset:0;-inkscape-stroke:none;stop-color:#000000;stop-opacity:1"
     d="M 16 0.47851562 C 15.281269 0.47851562 14.561149 0.66268857 13.916016 1.0351562 L 4.0839844 6.7148438 C 2.7937177 7.459782 2 8.8323929 2 10.322266 L 2 21.677734 C 2 23.167608 2.7937177 24.538268 4.0839844 25.283203 L 13.916016 30.962891 C 13.955255 30.985546 13.997338 31.000207 14.037109 31.021484 C 13.949666 30.514358 13.974451 29.989624 14.154297 29.482422 C 14.400233 28.989972 14.647993 28.499004 14.900391 28.009766 L 5.6074219 22.644531 C 5.2636622 22.446062 5.0488281 22.074673 5.0488281 21.677734 L 5.0488281 10.322266 C 5.0488281 10.123798 5.1026888 9.9308807 5.1992188 9.7636719 L 16 16 L 16 3.5292969 C 16.193075 3.5292969 16.386713 3.5785094 16.558594 3.6777344 L 26.392578 9.3554688 C 26.564459 9.4546987 26.704242 9.5964641 26.800781 9.7636719 L 16 16 L 16 25.925781 C 17.459118 23.191088 18.97485 20.486206 20.429688 17.753906 C 21.027097 16.280607 22.367751 14.906298 24.070312 15.009766 C 25.154815 15.032663 26.223983 15.585049 26.841797 16.482422 C 27.904482 18.362478 28.938432 20.259231 29.966797 22.160156 C 29.985301 22.001066 30 21.840296 30 21.677734 L 30 10.322266 C 30 8.8323929 29.206283 7.459782 27.916016 6.7148438 L 18.083984 1.0351562 C 17.438851 0.66268857 16.718731 0.47851562 16 0.47851562 z " />
  <g
     id="g4"
     transform="translate(-872,-552)"
     color="#000000" />
  <path
     id="path829"
     style="color:#000000;font-weight:400;line-height:normal;font-family:sans-serif;font-variant-ligatures:normal;font-variant-position:normal;font-variant-caps:normal;font-variant-numeric:normal;font-variant-alternates:normal;font-feature-settings:normal;text-indent:0;text-align:start;text-decoration:none;text-decoration-line:none;text-decoration-style:solid;text-decoration-color:#000000;text-transform:none;text-orientation:mixed;white-space:normal;shape-padding:0;overflow:visible;isolation:auto;mix-blend-mode:normal;fill:#555761"
     d="m 23.962988,17.000505 a 1.499,1.499 0 0 0 -1.277344,0.785156 l -6.501953,12 c -0.542,0.999998 0.180408,2.216797 1.316406,2.216797 h 13 c 1.135998,0 1.858406,-1.215799 1.316406,-2.216797 l -6.498047,-12 a 1.496,1.496 0 0 0 -1.355468,-0.785156 z m 0.03906,4.001953 a 1,1 0 0 1 1,1 v 2.5 a 4.0615528,4.0615528 0 0 1 -0.121094,0.984375 l -0.257812,1.03125 a 0.6403882,0.6403882 0 0 1 -0.621094,0.484375 0.6403882,0.6403882 0 0 1 -0.621094,-0.484375 l -0.257812,-1.03125 a 4.0615528,4.0615528 0 0 1 -0.121094,-0.984375 v -2.5 a 1,1 0 0 1 1,-1 z m 0,7 a 1,1 0 0 1 0,2 1,1 0 0 1 0,-2 z" />
</svg>
