<?xml version="1.0" encoding="UTF-8" standalone="no"?>
<svg
   id="svg6"
   version="1.1"
   width="32"
   height="32"
   xmlns="http://www.w3.org/2000/svg"
   xmlns:svg="http://www.w3.org/2000/svg"
   xmlns:rdf="http://www.w3.org/1999/02/22-rdf-syntax-ns#"
   xmlns:cc="http://creativecommons.org/ns#"
   xmlns:dc="http://purl.org/dc/elements/1.1/">
  <metadata
     id="metadata12">
    <rdf:RDF>
      <cc:Work
         rdf:about="">
        <dc:format>image/svg+xml</dc:format>
        <dc:type
           rdf:resource="http://purl.org/dc/dcmitype/StillImage" />
      </cc:Work>
    </rdf:RDF>
  </metadata>
  <defs
     id="defs10" />
  <g
     id="g4"
     transform="translate(-872,-552)"
     color="#000000" />
  <g
     transform="rotate(-45,6.8232233,2.8054564)"
     id="g4567" />
  <path
     id="rect23"
     d="M 24.986223,6.6877527e-5 C 24.432226,6.6877527e-5 23.986227,0.446065 23.986227,1.0000627 V 8.363313 c -2.329368,0.8231173 -3.999983,3.018541 -3.999983,5.636695 v 11.99995 3.999983 c 0,1.107995 0.891996,1.999991 1.999992,1.999991 h 7.999966 c 1.107996,0 1.999992,-0.891996 1.999992,-1.999991 v -5.999975 -9.999958 c 0,-2.618154 -1.670615,-4.8135777 -3.999983,-5.636695 V 1.0000627 C 27.986211,0.446065 27.540213,6.6877527e-5 26.986215,6.6877527e-5 Z M 15.466732,7.9648772 12.951118,8.6992491 13.986269,12.56642 16.50579,11.828142 Z M 11.603467,9.0000291 0.01367188,12.105485 1.0488238,15.96875 12.638619,12.863294 Z M 6.1894272,18.13671 c -1.0224721,0 -2.044642,0.392305 -2.8281131,1.175776 -1.566942,1.566941 -1.566942,4.089285 0,5.656226 l 5.6562262,5.656226 c 1.5669417,1.56694 4.0892847,1.56694 5.6562267,0 1.566942,-1.566941 1.566942,-4.089285 0,-5.656226 L 9.0175403,19.312486 C 8.2340694,18.529015 7.2118993,18.13671 6.1894272,18.13671 Z m 4.2421698,5.417946 1.414056,1.414056 1.414057,1.414056 c 0.783471,0.783471 0.783471,2.044643 0,2.828114 -0.783471,0.783473 -2.044642,0.783473 -2.828113,0 L 9.0175403,27.796826 7.6034838,26.382768 9.0175403,24.968712 Z"
     style="opacity:1;fill:#666666;fill-opacity:1;stroke:none;stroke-width:10;stroke-opacity:1" />
  <path
     id="path4592"
     d="m 14.986265,6.6877527e-5 c 0,0 -0.706795,-0.01378815753 -1.445306,0.355467262473 -0.738511,0.36925539 -1.554681,1.31119236 -1.554681,2.64452016 0,1.3333278 0.81617,2.2752646 1.554681,2.6445201 0.615687,0.3554673 0.44531,1.3554631 0.44531,1.3554631 -0.01913,1.3523169 2.019117,1.3523169 1.999992,0 C 16.097233,5.0000459 14.986265,4.1757671 14.43158,3.8555195 14.170095,3.724777 13.986269,3.6667181 13.986269,3.0000543 c 0,-0.6666638 0.183826,-0.7247228 0.445311,-0.8554652 0.261485,-0.1307425 0.554685,-0.1445306 0.554685,-0.1445306 1.352317,0.01912 1.352317,-2.01911674 0,-1.999991622473 z"
     style="color:#000000;font-style:normal;font-variant:normal;font-weight:normal;font-stretch:normal;font-size:medium;line-height:normal;font-family:sans-serif;font-variant-ligatures:normal;font-variant-position:normal;font-variant-caps:normal;font-variant-numeric:normal;font-variant-alternates:normal;font-feature-settings:normal;text-indent:0;text-align:start;text-decoration:none;text-decoration-line:none;text-decoration-style:solid;text-decoration-color:#000000;letter-spacing:normal;word-spacing:normal;text-transform:none;writing-mode:lr-tb;direction:ltr;text-orientation:mixed;dominant-baseline:auto;baseline-shift:baseline;text-anchor:start;white-space:normal;shape-padding:0;clip-rule:nonzero;display:inline;overflow:visible;visibility:visible;opacity:0.5;isolation:auto;mix-blend-mode:normal;color-interpolation:sRGB;color-interpolation-filters:linearRGB;solid-color:#000000;solid-opacity:1;vector-effect:none;fill:#666666;fill-opacity:1;fill-rule:nonzero;stroke:none;stroke-width:1px;stroke-linecap:round;stroke-linejoin:miter;stroke-miterlimit:4;stroke-dasharray:none;stroke-dashoffset:0;stroke-opacity:1;color-rendering:auto;image-rendering:auto;shape-rendering:auto;text-rendering:auto;enable-background:accumulate" />
</svg>
