<?xml version="1.0" encoding="UTF-8" standalone="no"?>
<svg
   version="1.1"
   width="48"
   height="48"
   id="svg4031"
   xmlns="http://www.w3.org/2000/svg"
   xmlns:svg="http://www.w3.org/2000/svg"
   xmlns:rdf="http://www.w3.org/1999/02/22-rdf-syntax-ns#"
   xmlns:cc="http://creativecommons.org/ns#"
   xmlns:dc="http://purl.org/dc/elements/1.1/">
  <defs
     id="defs4033" />
  <metadata
     id="metadata4036">
    <rdf:RDF>
      <cc:Work
         rdf:about="">
        <dc:format>image/svg+xml</dc:format>
        <dc:type
           rdf:resource="http://purl.org/dc/dcmitype/StillImage" />
      </cc:Work>
    </rdf:RDF>
  </metadata>
  <path
     id="path8655-6"
     style="color:#000000;display:inline;overflow:visible;visibility:visible;opacity:1;fill:#555761;stroke:none;stroke-width:1;stroke-linecap:round;stroke-linejoin:round;stroke-miterlimit:4;stroke-dasharray:none;stroke-dashoffset:0;stroke-opacity:1;marker:none;enable-background:accumulate"
     d="M 24 4 C 12.954228 4 4 12.954481 4 24 C 4 35.045927 12.954228 44 24 44 C 35.04476 44 44 35.046029 44 24 C 44 12.954481 35.04476 4 24 4 z M 24 6 C 33.940284 6 42 14.059034 42 24 C 42 33.941426 33.940284 42 24 42 C 14.058805 42 6 33.941335 6 24 C 6 14.059034 14.058805 6 24 6 z M 24.140625 12 C 22.500676 12 21.169922 13.333147 21.169922 14.976562 C 21.169922 16.619977 22.500676 17.955078 24.140625 17.955078 C 25.780574 17.955078 27.111328 16.619976 27.111328 14.976562 C 27.111328 13.333147 25.780574 12 24.140625 12 z M 13.216797 18.103516 C 13.13733 18.115028 13.059215 18.138629 12.986328 18.173828 C 12.694779 18.314623 12.50402 18.649249 12.5 18.966797 C 12.4963 19.284388 12.698404 19.557299 12.986328 19.705078 L 20.896484 22.21875 L 20.841797 27.992188 L 18.050781 36.636719 C 17.781985 37.030367 17.864397 37.536391 18.267578 37.798828 C 18.670777 38.061304 19.242895 37.981584 19.511719 37.587891 L 24.015625 28.255859 L 28.433594 37.570312 C 28.672537 37.978612 29.204915 38.120024 29.623047 37.886719 C 30.041178 37.653417 30.186199 37.134865 29.947266 36.726562 L 27.208984 28.044922 L 27.101562 22.609375 L 35.121094 19.673828 C 35.445146 19.451938 35.585667 19.033164 35.445312 18.671875 C 35.304947 18.310547 34.92057 18.098797 34.527344 18.142578 C 34.389933 18.164888 34.259719 18.218965 34.148438 18.300781 L 24 19.886719 L 13.90625 18.279297 C 13.710559 18.137064 13.455198 18.068978 13.216797 18.103516 z " />
</svg>
