<?xml version="1.0" encoding="UTF-8" standalone="no"?>
<svg
   height="16"
   width="16"
   version="1.1"
   id="svg6"
   xmlns="http://www.w3.org/2000/svg"
   xmlns:svg="http://www.w3.org/2000/svg">
  <defs
     id="defs10" />
  <path
     style="color:#000000;font-variation-settings:normal;clip-rule:nonzero;display:inline;overflow:visible;visibility:visible;opacity:1;isolation:auto;mix-blend-mode:normal;color-interpolation:sRGB;color-interpolation-filters:linearRGB;solid-color:#000000;solid-opacity:1;vector-effect:none;fill:#666666;fill-opacity:1;fill-rule:nonzero;stroke:none;stroke-width:1;stroke-linecap:butt;stroke-linejoin:miter;stroke-miterlimit:4;stroke-dasharray:none;stroke-dashoffset:0;stroke-opacity:1;-inkscape-stroke:none;marker:none;color-rendering:auto;image-rendering:auto;shape-rendering:auto;text-rendering:auto;enable-background:accumulate;stop-color:#000000;stop-opacity:1"
     d="m 7.0000001,2 v 1.150391 c -0.41413,0.110307 -0.773285,0.277675 -1.068359,0.513671 -0.549843,0.443114 -0.824219,1.051721 -0.824219,1.826172 0,0.411178 0.08406,0.77074 0.251953,1.078125 0.167891,0.307386 0.392611,0.577057 0.673828,0.808594 0.281217,0.231537 0.703191,0.473113 1.265625,0.724609 0.60021,0.271458 0.996379,0.469998 1.189453,0.59375 0.197272,0.123753 0.346531,0.252944 0.447266,0.388672 0.100734,0.131737 0.150391,0.283422 0.150391,0.455078 -10e-7,0.307386 -0.114854,0.539624 -0.345704,0.695313 -0.226652,0.155689 -0.5543,0.232422 -0.982422,0.232422 -0.356768,0 -0.751274,-0.05432 -1.183593,-0.162109 -0.428122,-0.107785 -0.953023,-0.293168 -1.574219,-0.556641 v 1.724609 c 0.595462,0.276879 1.263742,0.441346 2,0.5 V 13 h 2 V 11.835938 C 9.4272981,11.72222 9.7950561,11.54895 10.099609,11.316406 10.699819,10.861316 11,10.239638 11,9.449219 11,8.87836 10.840477,8.397077 10.521484,8.005859 10.202492,7.61065 9.6123941,7.217389 8.7519531,6.826172 8.1013761,6.530763 7.6880041,6.32662 7.5117191,6.214844 7.3396311,6.099075 7.2145141,5.981089 7.1347661,5.861328 7.0550161,5.737576 7.0156251,5.595313 7.0156251,5.431641 c 0,-0.263473 0.09765,-0.476953 0.294922,-0.640625 0.197272,-0.163673 0.480249,-0.246094 0.849609,-0.246094 0.310598,0 0.62632,0.03743 0.945313,0.113281 0.32319,0.07585 0.729622,0.210727 1.2207029,0.402344 L 10.955078,3.617188 C 10.480786,3.421579 10.02636,3.269894 9.5898441,3.162109 9.3983961,3.114378 9.2005021,3.081281 9.0000001,3.054688 V 2 Z"
     id="rect4237" />
</svg>
