<?xml version="1.0" encoding="UTF-8" standalone="no"?>
<svg
   id="svg6"
   version="1.1"
   width="48"
   height="48"
   xmlns="http://www.w3.org/2000/svg"
   xmlns:svg="http://www.w3.org/2000/svg"
   xmlns:rdf="http://www.w3.org/1999/02/22-rdf-syntax-ns#"
   xmlns:cc="http://creativecommons.org/ns#"
   xmlns:dc="http://purl.org/dc/elements/1.1/">
  <metadata
     id="metadata12">
    <rdf:RDF>
      <cc:Work
         rdf:about="">
        <dc:format>image/svg+xml</dc:format>
        <dc:type
           rdf:resource="http://purl.org/dc/dcmitype/StillImage" />
      </cc:Work>
    </rdf:RDF>
  </metadata>
  <defs
     id="defs10" />
  <path
     id="rect442-7"
     style="fill:#555761;stroke-width:1;stop-color:#000000"
     d="M 8 9 C 5.2300084 9 3 11.230009 3 14 L 3 17 L 3 22 L 3 37 C 3 39.769991 5.2300084 42 8 42 L 40 42 C 42.769991 42 45 39.769991 45 37 L 45 22 L 45 17 L 45 14 C 45 11.230009 42.769991 9 40 9 L 8 9 z M 8 11 L 40 11 C 41.661994 11 43 12.338006 43 14 L 43 17 L 5 17 L 5 14 C 5 12.338006 6.3380051 11 8 11 z M 5 22 L 43 22 L 43 37 C 43 38.661994 41.661994 40 40 40 L 8 40 C 6.3380051 40 5 38.661994 5 37 L 5 22 z M 31.5 33 A 1.5 1.5 0 0 0 30 34.5 A 1.5 1.5 0 0 0 31.5 36 A 1.5 1.5 0 0 0 33 34.5 A 1.5 1.5 0 0 0 31.5 33 z M 37.5 33 A 1.5 1.5 0 0 0 36 34.5 A 1.5 1.5 0 0 0 37.5 36 A 1.5 1.5 0 0 0 39 34.5 A 1.5 1.5 0 0 0 37.5 33 z " />
</svg>
