<?xml version="1.0" encoding="UTF-8" standalone="no"?>
<svg
   xmlns:dc="http://purl.org/dc/elements/1.1/"
   xmlns:cc="http://creativecommons.org/ns#"
   xmlns:rdf="http://www.w3.org/1999/02/22-rdf-syntax-ns#"
   xmlns:svg="http://www.w3.org/2000/svg"
   xmlns="http://www.w3.org/2000/svg"
   width="16.933332mm"
   height="16.933332mm"
   viewBox="0 0 59.999997 59.999996"
   id="svg3926"
   version="1.1">
  <defs
     id="defs3928" />
  <metadata
     id="metadata3931">
    <rdf:RDF>
      <cc:Work
         rdf:about="">
        <dc:format>image/svg+xml</dc:format>
        <dc:type
           rdf:resource="http://purl.org/dc/dcmitype/StillImage" />
        <dc:title></dc:title>
      </cc:Work>
    </rdf:RDF>
  </metadata>
  <path
     id="rect4825"
     d="m 26,10 0,2 8,0 0,-2 -8,0 z m -16,16 0,8 2,0 0,-8 -2,0 z m 38,0 0,8 2,0 0,-8 -2,0 z m -38,18 0,4 0,2 6,0 0,-2 -4,0 0,-4 -2,0 z m 16,4 0,2 8,0 0,-2 -8,0 z"
     style="color:#000000;clip-rule:nonzero;display:inline;overflow:visible;visibility:visible;opacity:1;isolation:auto;mix-blend-mode:normal;color-interpolation:sRGB;color-interpolation-filters:linearRGB;solid-color:#000000;solid-opacity:1;fill:#cccccc;fill-opacity:1;fill-rule:nonzero;stroke:none;stroke-width:2.75;stroke-linecap:butt;stroke-linejoin:miter;stroke-miterlimit:4;stroke-dasharray:none;stroke-dashoffset:0;stroke-opacity:1;marker:none;color-rendering:auto;image-rendering:auto;shape-rendering:auto;text-rendering:auto;enable-background:accumulate" />
  <path
     id="rect3355"
     d="M 0,0 0,20 20,20 20,0 0,0 Z M 50,0 A 10,10 0 0 0 40,10 10,10 0 0 0 50,20 10,10 0 0 0 60,10 10,10 0 0 0 50,0 Z M 4,4 16,4 16,16 4,16 4,4 Z m 46,0 a 6,6 0 0 1 6,6 6,6 0 0 1 -6,6 6,6 0 0 1 -6,-6 6,6 0 0 1 6,-6 z m -10,36 0,20 20,0 0,-20 -20,0 z m 4,4 12,0 0,12 -12,0 0,-12 z"
     style="color:#000000;clip-rule:nonzero;display:inline;overflow:visible;visibility:visible;opacity:1;isolation:auto;mix-blend-mode:normal;color-interpolation:sRGB;color-interpolation-filters:linearRGB;solid-color:#000000;solid-opacity:1;fill:#fe5498;fill-opacity:1;fill-rule:nonzero;stroke:none;stroke-width:2.75;stroke-linecap:butt;stroke-linejoin:miter;stroke-miterlimit:4;stroke-dasharray:none;stroke-dashoffset:0;stroke-opacity:1;marker:none;color-rendering:auto;image-rendering:auto;shape-rendering:auto;text-rendering:auto;enable-background:accumulate" />
</svg>
