<?xml version="1.0" encoding="UTF-8" standalone="no"?>
<svg
   xmlns:dc="http://purl.org/dc/elements/1.1/"
   xmlns:cc="http://creativecommons.org/ns#"
   xmlns:rdf="http://www.w3.org/1999/02/22-rdf-syntax-ns#"
   xmlns:svg="http://www.w3.org/2000/svg"
   xmlns="http://www.w3.org/2000/svg"
   xmlns:sodipodi="http://sodipodi.sourceforge.net/DTD/sodipodi-0.dtd"
   xmlns:inkscape="http://www.inkscape.org/namespaces/inkscape"
   version="1.1"
   id="svg3926"
   viewBox="0 0 30.000046 30.000042"
   height="8.4666786mm"
   width="8.4666796mm"
   inkscape:version="0.91 r13725"
   sodipodi:docname="graphics-rtl.svg">
  <sodipodi:namedview
     pagecolor="#ffffff"
     bordercolor="#666666"
     borderopacity="1"
     objecttolerance="10"
     gridtolerance="10"
     guidetolerance="10"
     inkscape:pageopacity="0"
     inkscape:pageshadow="2"
     inkscape:window-width="1440"
     inkscape:window-height="844"
     id="namedview15"
     showgrid="true"
     inkscape:zoom="21.166637"
     inkscape:cx="21.377985"
     inkscape:cy="15.000021"
     inkscape:window-x="0"
     inkscape:window-y="30"
     inkscape:window-maximized="1"
     inkscape:current-layer="svg3926">
    <inkscape:grid
       type="xygrid"
       id="grid3343" />
  </sodipodi:namedview>
  <defs
     id="defs3928" />
  <metadata
     id="metadata3931">
    <rdf:RDF>
      <cc:Work
         rdf:about="">
        <dc:format>image/svg+xml</dc:format>
        <dc:type
           rdf:resource="http://purl.org/dc/dcmitype/StillImage" />
        <dc:title />
      </cc:Work>
    </rdf:RDF>
  </metadata>
  <path
     style="color:#000000;clip-rule:nonzero;display:inline;overflow:visible;visibility:visible;opacity:1;isolation:auto;mix-blend-mode:normal;color-interpolation:sRGB;color-interpolation-filters:linearRGB;solid-color:#000000;solid-opacity:1;fill:#cccccc;fill-opacity:1;fill-rule:nonzero;stroke:none;stroke-width:2.75;stroke-linecap:butt;stroke-linejoin:miter;stroke-miterlimit:4;stroke-dasharray:none;stroke-dashoffset:0;stroke-opacity:1;marker:none;color-rendering:auto;image-rendering:auto;shape-rendering:auto;text-rendering:auto;enable-background:accumulate"
     d="m 17,5 0,1 -4,0 0,-1 4,0 z m 8,8 0,4 -1,0 0,-4 1,0 z m -19,0 0,4 -1,0 0,-4 1,0 z m 19,9 0,2 0,1 -3,0 0,-1 2,0 0,-2 1,0 z m -8,2 0,1 -4,0 0,-1 4,0 z"
     id="rect4825"
     inkscape:connector-curvature="0" />
  <path
     style="color:#000000;clip-rule:nonzero;display:inline;overflow:visible;visibility:visible;opacity:1;isolation:auto;mix-blend-mode:normal;color-interpolation:sRGB;color-interpolation-filters:linearRGB;solid-color:#000000;solid-opacity:1;fill:#fe5498;fill-opacity:1;fill-rule:nonzero;stroke:none;stroke-width:2.75;stroke-linecap:butt;stroke-linejoin:miter;stroke-miterlimit:4;stroke-dasharray:none;stroke-dashoffset:0;stroke-opacity:1;marker:none;color-rendering:auto;image-rendering:auto;shape-rendering:auto;text-rendering:auto;enable-background:accumulate"
     d="M 30,0 30,10 20,10 20,0 30,0 Z M 5,0 A 5,5 0 0 1 10,5 5,5 0 0 1 5,10 5,5 0 0 1 0,5 5,5 0 0 1 5,0 Z m 23,2 -6,0 0,6 6,0 0,-6 z M 5,2 A 3,3 0 0 0 2,5 3,3 0 0 0 5,8 3,3 0 0 0 8,5 3,3 0 0 0 5,2 Z m 5,18 0,10 -10,0 0,-10 10,0 z m -2,2 -6,0 0,6 6,0 0,-6 z"
     id="rect3355"
     inkscape:connector-curvature="0" />
</svg>
