<?xml version="1.0" encoding="UTF-8" standalone="no"?>
<svg
   version="1.1"
   id="Layer_1"
   x="0px"
   y="0px"
   width="16"
   height="16"
   viewBox="0 0 16 16"
   enable-background="new 0 0 97 97"
   xml:space="preserve"
   xmlns="http://www.w3.org/2000/svg"
   xmlns:svg="http://www.w3.org/2000/svg"
   xmlns:rdf="http://www.w3.org/1999/02/22-rdf-syntax-ns#"
   xmlns:cc="http://creativecommons.org/ns#"
   xmlns:dc="http://purl.org/dc/elements/1.1/"><metadata
   id="metadata11"><rdf:RDF><cc:Work
       rdf:about=""><dc:format>image/svg+xml</dc:format><dc:type
         rdf:resource="http://purl.org/dc/dcmitype/StillImage" /></cc:Work></rdf:RDF></metadata><defs
   id="defs9" />

<path
   id="rect902"
   style="font-variation-settings:normal;opacity:1;vector-effect:none;fill:#555761;fill-opacity:1;stroke-width:1;stroke-linecap:round;stroke-linejoin:miter;stroke-miterlimit:4;stroke-dasharray:none;stroke-dashoffset:0;stroke-opacity:1;stop-color:#000000;stop-opacity:1;marker:none;stroke:none;-inkscape-stroke:none"
   d="M 8 0 C 7.4887619 0 6.9776746 0.19615351 6.5859375 0.58789062 L 5.4414062 1.734375 L 6.8535156 3.1464844 A 1.5 1.5 0 0 1 7.5 3 A 1.5 1.5 0 0 1 9 4.5 A 1.5 1.5 0 0 1 8.8535156 5.1464844 L 10.853516 7.1464844 A 1.5 1.5 0 0 1 11.5 7 A 1.5 1.5 0 0 1 13 8.5 A 1.5 1.5 0 0 1 11.5 10 A 1.5 1.5 0 0 1 10 8.5 A 1.5 1.5 0 0 1 10.146484 7.8535156 L 8.1464844 5.8535156 A 1.5 1.5 0 0 1 8 5.9121094 L 8 10.085938 A 1.5 1.5 0 0 1 9 11.5 A 1.5 1.5 0 0 1 7.5 13 A 1.5 1.5 0 0 1 6 11.5 A 1.5 1.5 0 0 1 7 10.087891 L 7 5.9140625 A 1.5 1.5 0 0 1 6 4.5 A 1.5 1.5 0 0 1 6.1464844 3.8535156 L 4.734375 2.4414062 L 0.58789062 6.5859375 C -0.1955836 7.3694117 -0.1955836 8.6305883 0.58789062 9.4140625 L 6.5859375 15.412109 C 7.3694117 16.195584 8.6305883 16.195584 9.4140625 15.412109 L 15.412109 9.4140625 C 16.195584 8.6305883 16.195584 7.3694117 15.412109 6.5859375 L 9.4140625 0.58789062 C 9.0223254 0.19615351 8.5112381 0 8 0 z " /></svg>
