<?xml version="1.0" encoding="UTF-8" standalone="no"?>
<svg xmlns:cc='http://creativecommons.org/ns#' xmlns:dc='http://purl.org/dc/elements/1.1/' height='32' id='svg11300' xmlns:osb='http://www.openswatchbook.org/uri/2009/osb' xmlns:rdf='http://www.w3.org/1999/02/22-rdf-syntax-ns#' style='display:inline;enable-background:new' xmlns:svg='http://www.w3.org/2000/svg' version='1.0' viewBox='0 0 32 32' width='32' xmlns:xlink='http://www.w3.org/1999/xlink' xmlns='http://www.w3.org/2000/svg'>
  <metadata id="metadata93">
    <rdf:RDF>
      <cc:Work rdf:about="">
        <dc:format>image/svg+xml</dc:format>
        <dc:type rdf:resource="http://purl.org/dc/dcmitype/StillImage"/>
        <dc:title>elementary Icon Template</dc:title>
      </cc:Work>
    </rdf:RDF>
  </metadata>
  <title id="title4162">elementary Icon Template</title>
  <defs id="defs3">
    <linearGradient id="linearGradient4161" y2="43" gradientUnits="userSpaceOnUse" x2="24" gradientTransform="matrix(.67568 0 0 .67568 123.78 93.784)" y1="5" x1="24">
      <stop id="stop3926-0-4" stop-color="#fff" offset="0"/>
      <stop id="stop3928-6-8" stop-color="#fff" stop-opacity=".23529" offset=".063165"/>
      <stop id="stop3930-2-1" stop-color="#fff" stop-opacity=".15686" offset=".95056"/>
      <stop id="stop3932-9-0" stop-color="#fff" stop-opacity=".39216" offset="1"/>
    </linearGradient>
    <radialGradient id="radialGradient5600-7" fx="6.633" cx="7.9002" gradientUnits="userSpaceOnUse" cy="10.028" r="12.672" gradientTransform="matrix(6.0103e-7 3.1566 -2.8409 5.4093e-7 168.49 67.11)">
      <stop id="stop3750-1-0-7-6-6-1-3-9-5-1" stop-color="#3cb0e3" offset="0"/>
      <stop id="stop7287" stop-color="#1da1f2" offset=".60938"/>
      <stop id="stop3756-1-6-2-6-6-1-96-6-2-3" stop-color="#1e96c8" offset="1"/>
    </radialGradient>
    <radialGradient id="radialGradient2976" cx="4.993" xlink:href="#linearGradient3688-166-749-6" gradientUnits="userSpaceOnUse" cy="43.5" r="2.5" gradientTransform="matrix(1.4765 0 0 0.6 142.94 97.4)"/>
    <linearGradient id="linearGradient3688-166-749-6">
      <stop id="stop2883-8" stop-color="#181818" offset="0"/>
      <stop id="stop2885-3" stop-color="#181818" stop-opacity="0" offset="1"/>
    </linearGradient>
    <radialGradient id="radialGradient2978" cx="4.993" xlink:href="#linearGradient3688-166-749-6" gradientUnits="userSpaceOnUse" cy="43.5" r="2.5" gradientTransform="matrix(1.4765 0 0 0.6 -137.06 -149.6)"/>
    <linearGradient id="linearGradient2980" y2="39.999" gradientUnits="userSpaceOnUse" x2="25.058" gradientTransform="matrix(.73684 0 0 .42857 122.32 104.86)" y1="47.028" x1="25.058">
      <stop id="stop3228" stop-color="#181818" stop-opacity="0" offset="0"/>
      <stop id="stop3230" stop-color="#181818" offset=".5"/>
      <stop id="stop3232" stop-color="#181818" stop-opacity="0" offset="1"/>
    </linearGradient>
    <linearGradient id="w-6" y2="174.71" gradientUnits="userSpaceOnUse" y1="131.03" gradientTransform="matrix(.16177 0 0 .13569 122.89 91.478)" x2="146.53" x1="123.64">
      <stop id="stop12-1" stop-color="#eff7fc" offset="0"/>
      <stop id="stop14-2" stop-color="#fff" offset="1"/>
    </linearGradient>
  </defs>
  <g id="g153" transform="translate(-124,-94)">
    <rect id="rect2801-0-3" opacity=".4" height="3" width="3.6842" y="122" x="150.32" fill="url(#radialGradient2976)"/>
    <rect id="rect3696-2-6" opacity=".4" transform="scale(-1)" height="3" width="3.6842" y="-125" x="-129.68" fill="url(#radialGradient2978)"/>
    <rect id="rect3700-1-7" opacity=".4" height="3" width="20.632" y="122" x="129.68" fill="url(#linearGradient2980)"/>
    <rect id="rect5505-5" style="color:#000000;enable-background:accumulate" rx="2.16" ry="2.16" height="27" width="27" y="96.548" x="126.5" fill="url(#radialGradient5600-7)"/>
    <rect id="rect6741-7-4-3" opacity=".5" stroke-linejoin="round" rx="1.087" ry="1.087" height="25" width="25" stroke="url(#linearGradient4161)" stroke-linecap="round" y="97.5" x="127.5" fill="none"/>
    <rect id="rect5505-6" stroke-linejoin="round" height="27" stroke="#042c45" stroke-linecap="round" fill="none" style="color-rendering:auto;color:#000000;isolation:auto;mix-blend-mode:normal;shape-rendering:auto;solid-color:#000000;image-rendering:auto;enable-background:accumulate" rx="2.16" ry="2.16" width="27" stroke-opacity=".4" y="96.5" x="126.5"/>
    <path id="path18-7" opacity=".15" d="m147.31 104.1c-0.16396-0.0182-0.34444 0.0116-0.5265 0.0938l-15.944 6.1113c-1.0884 0.43399-1.082 1.0376-0.19841 1.3066l4.0902 1.2695 1.4066 4.6035c0.18493 0.50763 0.0943 0.70899 0.63061 0.70899 0.41382 0 0.59609-0.1869 0.82708-0.41016l1.9881-1.9238 4.1373 3.0391c0.76122 0.41756 1.3113 0.20087 1.5009-0.70312l2.715-12.721c0.2085-0.83107-0.13483-1.3204-0.6267-1.375z" fill="#541700"/>
    <path id="path4424" opacity=".05" d="m147.31 104.1c-0.16396-0.0182-0.34444 0.0116-0.5265 0.0938l-15.944 6.1113c-1.0884 0.43399-1.082 1.0376-0.19841 1.3066l4.0902 1.2695 1.4066 4.6035c0.18493 0.50763 0.0943 0.70899 0.63061 0.70899 0.41382 0 0.59609-0.1869 0.82708-0.41016l1.9881-1.9238 4.1373 3.0391c0.76122 0.41756 1.3113 0.20087 1.5009-0.70312l2.715-12.721c0.2085-0.83107-0.13483-1.3204-0.6267-1.375z" stroke="#000" stroke-width="2" fill="#541700"/>
    <g id="g4329" transform="matrix(.93102 0 0 .92561 8.8387 8.4183)">
      <path id="path18" fill="#c8daea" d="m137.41 117.41c-0.57598 0-0.47811-0.21748-0.67675-0.7659l-1.6938-5.5744 13.038-7.7347"/>
      <path id="path20" fill="#a9c9dd" d="m137.41 117.41c0.44447 0 0.64086-0.20327 0.88895-0.44447l2.3705-2.305-2.9569-1.7831"/>
      <path id="path22" fill="url(#w-6)" d="m137.71 112.87 7.1649 5.2936c0.81761 0.45112 1.4077 0.21756 1.6114-0.75909l2.9165-13.744c0.2986-1.1972-0.45634-1.7401-1.2385-1.385l-17.126 6.6036c-1.169 0.46887-1.1622 1.121-0.21308 1.4116l4.3948 1.3717 10.174-6.419c0.48032-0.29126 0.92114-0.13467 0.55933 0.18644"/>
    </g>
  </g>
</svg>
